<svg xmlns="http://www.w3.org/2000/svg" xmlns:xlink="http://www.w3.org/1999/xlink" width="400" zoomAndPan="magnify" viewBox="0 0 300 149.999998" height="200" preserveAspectRatio="xMidYMid meet" version="1.0"><path fill="#ffffff" d="M 4.851562 54.984375 L 22.488281 54.984375 C 27.417969 54.984375 31.398438 56.257812 34.445312 58.792969 C 37.5 61.332031 39.027344 65.023438 39.027344 69.871094 C 39.027344 74.71875 37.480469 78.523438 34.382812 81.277344 C 31.296875 84.035156 27.335938 85.410156 22.488281 85.410156 L 15.871094 85.410156 L 15.871094 103.355469 L 4.851562 103.355469 Z M 15.871094 76.613281 L 18.984375 76.613281 C 21.441406 76.613281 23.457031 76.117188 25.035156 75.125 C 26.625 74.121094 27.417969 72.488281 27.417969 70.21875 C 27.417969 67.925781 26.625 66.28125 25.035156 65.289062 C 23.457031 64.285156 21.441406 63.78125 18.984375 63.78125 L 15.871094 63.78125 Z M 15.871094 76.613281 " fill-opacity="1" fill-rule="nonzero"/><path fill="#ffffff" d="M 46.726562 99.789062 C 43.386719 96.816406 41.714844 93.003906 41.714844 88.34375 C 41.714844 83.691406 43.453125 79.867188 46.929688 76.878906 C 50.417969 73.894531 54.71875 72.398438 59.84375 72.398438 C 64.878906 72.398438 69.128906 73.902344 72.589844 76.917969 C 76.054688 79.921875 77.785156 83.730469 77.785156 88.34375 C 77.785156 92.960938 76.09375 96.765625 72.714844 99.75 C 69.332031 102.738281 65.039062 104.230469 59.84375 104.230469 C 54.449219 104.230469 50.078125 102.753906 46.726562 99.789062 Z M 54.75 83.253906 C 53.40625 84.570312 52.734375 86.265625 52.734375 88.34375 C 52.734375 90.421875 53.375 92.113281 54.667969 93.414062 C 55.957031 94.71875 57.664062 95.371094 59.78125 95.371094 C 61.816406 95.371094 63.488281 94.714844 64.792969 93.394531 C 66.105469 92.066406 66.765625 90.378906 66.765625 88.34375 C 66.765625 86.265625 66.085938 84.570312 64.730469 83.253906 C 63.386719 81.921875 61.738281 81.257812 59.78125 81.257812 C 57.785156 81.257812 56.105469 81.921875 54.75 83.253906 Z M 54.75 83.253906 " fill-opacity="1" fill-rule="nonzero"/><path fill="#ffffff" d="M 92.441406 73.273438 L 92.441406 87.589844 C 92.441406 90.554688 92.890625 92.660156 93.785156 93.925781 C 94.683594 95.175781 96.199219 95.796875 98.347656 95.796875 C 100.507812 95.796875 102.035156 95.175781 102.929688 93.925781 C 103.828125 92.660156 104.273438 90.554688 104.273438 87.589844 L 104.273438 73.273438 L 114.660156 73.273438 L 114.660156 90.09375 C 114.660156 95.105469 113.359375 98.71875 110.75 100.929688 C 108.15625 103.128906 104.019531 104.230469 98.347656 104.230469 C 92.6875 104.230469 88.550781 103.128906 85.945312 100.929688 C 83.347656 98.71875 82.054688 95.105469 82.054688 90.09375 L 82.054688 73.273438 Z M 92.441406 73.273438 " fill-opacity="1" fill-rule="nonzero"/><path fill="#ffffff" d="M 121.105469 52.925781 L 131.46875 52.925781 L 131.46875 103.355469 L 121.105469 103.355469 Z M 121.105469 52.925781 " fill-opacity="1" fill-rule="nonzero"/><path fill="#ffffff" d="M 168.941406 89.75 L 147.128906 89.75 C 147.128906 91.867188 147.808594 93.433594 149.167969 94.453125 C 150.535156 95.460938 152.027344 95.960938 153.648438 95.960938 C 155.316406 95.960938 156.640625 95.738281 157.617188 95.289062 C 158.597656 94.839844 159.707031 93.953125 160.957031 92.621094 L 168.472656 96.367188 C 165.347656 101.613281 160.148438 104.230469 152.875 104.230469 C 148.335938 104.230469 144.445312 102.675781 141.203125 99.566406 C 137.953125 96.460938 136.335938 92.71875 136.335938 88.34375 C 136.335938 83.976562 137.953125 80.226562 141.203125 77.101562 C 144.445312 73.964844 148.335938 72.398438 152.875 72.398438 C 157.640625 72.398438 161.511719 73.777344 164.503906 76.53125 C 167.5 79.289062 169.003906 83.226562 169.003906 88.34375 C 169.003906 89.050781 168.984375 89.519531 168.941406 89.75 Z M 147.414062 84.003906 L 158.859375 84.003906 C 158.617188 82.449219 157.996094 81.246094 157.007812 80.402344 C 156.015625 79.5625 154.730469 79.136719 153.160156 79.136719 C 151.449219 79.136719 150.082031 79.585938 149.066406 80.480469 C 148.046875 81.378906 147.496094 82.554688 147.414062 84.003906 Z M 147.414062 84.003906 " fill-opacity="1" fill-rule="nonzero"/><path fill="#ffffff" d="M 176.695312 99.789062 C 173.355469 96.816406 171.6875 93.003906 171.6875 88.34375 C 171.6875 83.691406 173.421875 79.867188 176.898438 76.878906 C 180.386719 73.894531 184.691406 72.398438 189.8125 72.398438 C 194.847656 72.398438 199.097656 73.902344 202.5625 76.917969 C 206.023438 79.921875 207.753906 83.730469 207.753906 88.34375 C 207.753906 92.960938 206.0625 96.765625 202.683594 99.75 C 199.304688 102.738281 195.011719 104.230469 189.8125 104.230469 C 184.421875 104.230469 180.046875 102.753906 176.695312 99.789062 Z M 184.71875 83.253906 C 183.375 84.570312 182.703125 86.265625 182.703125 88.34375 C 182.703125 90.421875 183.347656 92.113281 184.640625 93.414062 C 185.925781 94.71875 187.632812 95.371094 189.75 95.371094 C 191.789062 95.371094 193.457031 94.714844 194.761719 93.394531 C 196.074219 92.066406 196.738281 90.378906 196.738281 88.34375 C 196.738281 86.265625 196.054688 84.570312 194.699219 83.253906 C 193.355469 81.921875 191.707031 81.257812 189.75 81.257812 C 187.753906 81.257812 186.074219 81.921875 184.71875 83.253906 Z M 184.71875 83.253906 " fill-opacity="1" fill-rule="nonzero"/><path fill="#ffffff" d="M 272.054688 31.339844 C 271.941406 31.472656 271.75 31.574219 271.089844 31.839844 C 270.949219 31.894531 270.75 31.921875 270.636719 31.890625 C 270.511719 31.855469 270.417969 31.890625 270.382812 31.992188 C 270.347656 32.078125 270.265625 32.144531 270.199219 32.144531 C 270.132812 32.144531 270.027344 32.210938 269.960938 32.285156 C 269.898438 32.367188 269.742188 32.429688 269.621094 32.429688 C 269.492188 32.429688 269.390625 32.476562 269.390625 32.527344 C 269.390625 32.578125 269.308594 32.617188 269.207031 32.617188 C 269.109375 32.617188 268.964844 32.683594 268.882812 32.761719 C 268.804688 32.84375 268.707031 32.902344 268.671875 32.902344 C 268.636719 32.902344 268.539062 32.984375 268.453125 33.082031 C 268.367188 33.179688 268.183594 33.332031 268.042969 33.421875 C 267.894531 33.515625 267.800781 33.632812 267.832031 33.675781 C 267.859375 33.722656 267.777344 33.757812 267.644531 33.757812 C 267.378906 33.757812 267.167969 34.011719 267.058594 34.449219 C 267.023438 34.59375 266.9375 34.710938 266.867188 34.710938 C 266.800781 34.710938 266.554688 34.882812 266.332031 35.09375 C 266.105469 35.300781 265.871094 35.46875 265.808594 35.46875 C 265.742188 35.46875 265.664062 35.582031 265.628906 35.707031 C 265.597656 35.839844 265.53125 35.949219 265.480469 35.949219 C 265.429688 35.949219 265.417969 35.898438 265.457031 35.839844 C 265.496094 35.773438 265.46875 35.75 265.390625 35.773438 C 265.316406 35.800781 265.246094 35.933594 265.226562 36.074219 C 265.210938 36.210938 265.160156 36.328125 265.113281 36.328125 C 265.0625 36.328125 264.886719 36.480469 264.710938 36.671875 C 264.519531 36.890625 264.320312 37.105469 264.117188 37.3125 C 263.953125 37.476562 263.664062 37.835938 263.464844 38.113281 C 263.265625 38.382812 263.046875 38.609375 262.972656 38.609375 C 262.898438 38.609375 262.726562 38.808594 262.582031 39.058594 C 262.441406 39.308594 262.253906 39.597656 262.167969 39.699219 C 262.074219 39.808594 261.949219 40.003906 261.871094 40.144531 C 261.800781 40.28125 261.558594 40.664062 261.335938 40.992188 C 261.117188 41.324219 260.933594 41.636719 260.933594 41.6875 C 260.933594 41.738281 260.867188 41.847656 260.792969 41.933594 C 260.714844 42.023438 260.609375 42.300781 260.558594 42.5625 C 260.472656 43 260.480469 43.039062 260.703125 43.242188 C 260.835938 43.359375 260.914062 43.457031 260.878906 43.457031 C 260.84375 43.457031 260.867188 43.519531 260.933594 43.601562 C 261.078125 43.773438 261.933594 43.789062 262.460938 43.632812 C 262.714844 43.554688 262.855469 43.441406 262.933594 43.257812 C 262.996094 43.113281 263.035156 42.964844 263.03125 42.929688 C 263.023438 42.898438 263.160156 42.777344 263.328125 42.664062 C 263.5 42.546875 263.65625 42.367188 263.679688 42.265625 C 263.699219 42.164062 263.796875 42.023438 263.890625 41.957031 C 264.105469 41.804688 264.371094 41.320312 264.289062 41.234375 C 264.253906 41.203125 264.300781 41.175781 264.386719 41.175781 C 264.472656 41.175781 264.605469 41.042969 264.6875 40.890625 C 264.769531 40.734375 265.027344 40.394531 265.261719 40.128906 C 265.496094 39.863281 265.683594 39.617188 265.691406 39.578125 C 265.691406 39.460938 266.414062 38.703125 266.53125 38.703125 C 266.585938 38.703125 266.636719 38.640625 266.636719 38.558594 C 266.636719 38.484375 266.683594 38.417969 266.734375 38.417969 C 266.789062 38.417969 266.875 38.304688 266.925781 38.171875 C 267 37.980469 267.050781 37.949219 267.144531 38.023438 C 267.242188 38.105469 267.320312 38.046875 267.480469 37.75 C 267.597656 37.542969 267.761719 37.375 267.84375 37.375 C 267.960938 37.375 267.964844 37.34375 267.878906 37.234375 C 267.789062 37.128906 267.796875 37.113281 267.941406 37.148438 C 268.066406 37.179688 268.242188 37.046875 268.539062 36.691406 C 268.773438 36.417969 268.957031 36.160156 268.941406 36.125 C 268.933594 36.089844 269 36.070312 269.085938 36.074219 C 269.175781 36.085938 269.238281 36.035156 269.222656 35.96875 C 269.214844 35.898438 269.351562 35.78125 269.539062 35.703125 C 269.722656 35.628906 269.898438 35.5 269.929688 35.421875 C 269.960938 35.347656 270.023438 35.28125 270.074219 35.28125 C 270.125 35.28125 270.34375 35.164062 270.5625 35.015625 C 271.199219 34.59375 271.453125 34.492188 271.648438 34.574219 C 271.738281 34.613281 271.867188 34.640625 271.925781 34.628906 C 272.023438 34.613281 272.136719 35.078125 272.210938 35.804688 C 272.226562 35.964844 272.289062 36.304688 272.339844 36.5625 C 272.394531 36.828125 272.414062 37.242188 272.378906 37.492188 C 272.34375 37.765625 272.359375 37.945312 272.414062 37.945312 C 272.515625 37.945312 272.496094 38.71875 272.390625 38.886719 C 272.359375 38.941406 272.359375 39.042969 272.398438 39.105469 C 272.53125 39.324219 272.648438 40.164062 272.660156 40.984375 C 272.675781 42.503906 272.558594 44.398438 272.445312 44.53125 C 272.386719 44.609375 272.359375 44.726562 272.386719 44.796875 C 272.492188 45.085938 272.492188 45.785156 272.386719 46.015625 C 272.289062 46.222656 272.273438 46.941406 272.355469 47.734375 C 272.359375 47.8125 272.335938 48.089844 272.296875 48.355469 C 272.230469 48.800781 272.246094 48.855469 272.476562 49.070312 C 272.621094 49.195312 272.773438 49.398438 272.824219 49.527344 C 272.878906 49.667969 272.964844 49.730469 273.058594 49.695312 C 273.136719 49.664062 273.363281 49.726562 273.554688 49.828125 C 273.75 49.933594 274.070312 50.0625 274.265625 50.113281 C 274.457031 50.167969 274.613281 50.238281 274.609375 50.28125 C 274.578125 50.488281 274.640625 50.585938 274.8125 50.585938 C 274.921875 50.585938 275.03125 50.648438 275.058594 50.71875 C 275.089844 50.792969 275.210938 50.875 275.339844 50.910156 C 275.464844 50.941406 275.613281 51.054688 275.667969 51.160156 C 275.746094 51.296875 275.832031 51.339844 275.980469 51.292969 C 276.148438 51.246094 276.15625 51.257812 276.046875 51.339844 C 275.921875 51.425781 275.933594 51.445312 276.113281 51.496094 C 276.304688 51.546875 276.289062 51.582031 275.878906 51.972656 C 275.632812 52.199219 275.398438 52.386719 275.347656 52.386719 C 275.300781 52.386719 275.289062 52.449219 275.316406 52.527344 C 275.351562 52.617188 275.324219 52.679688 275.230469 52.714844 C 275.160156 52.738281 275.09375 52.8125 275.09375 52.871094 C 275.09375 52.929688 275.003906 53.054688 274.878906 53.152344 C 274.703125 53.300781 274.664062 53.421875 274.660156 53.957031 C 274.652344 54.691406 274.820312 55.105469 275.324219 55.582031 C 275.5 55.753906 275.679688 55.984375 275.714844 56.101562 C 275.765625 56.253906 275.835938 56.292969 276.011719 56.261719 C 276.164062 56.234375 276.234375 56.261719 276.234375 56.347656 C 276.234375 56.421875 276.355469 56.53125 276.5 56.597656 C 276.769531 56.714844 277.539062 57.5 277.496094 57.621094 C 277.488281 57.664062 277.660156 57.863281 277.882812 58.070312 C 278.328125 58.476562 278.992188 59.261719 278.992188 59.375 C 278.992188 59.410156 279.117188 59.597656 279.265625 59.792969 C 279.410156 59.980469 279.558594 60.234375 279.589844 60.351562 C 279.636719 60.550781 279.609375 60.566406 279.152344 60.585938 C 277.597656 60.640625 277.222656 60.726562 276.839844 61.105469 C 276.660156 61.285156 276.480469 61.40625 276.433594 61.375 C 276.289062 61.289062 276.25 61.410156 276.078125 62.363281 C 276.03125 62.601562 276.054688 62.714844 276.179688 62.800781 C 276.265625 62.867188 276.324219 62.972656 276.3125 63.039062 C 276.296875 63.105469 276.371094 63.207031 276.484375 63.269531 C 276.589844 63.324219 276.660156 63.425781 276.636719 63.492188 C 276.617188 63.5625 276.722656 63.660156 276.890625 63.726562 C 277.054688 63.789062 277.1875 63.871094 277.1875 63.910156 C 277.1875 63.945312 277.125 63.957031 277.042969 63.925781 C 276.84375 63.847656 276.867188 63.941406 277.113281 64.207031 C 277.460938 64.578125 277.710938 64.976562 277.679688 65.101562 C 277.664062 65.167969 277.710938 65.222656 277.777344 65.222656 C 277.929688 65.222656 278.164062 65.574219 278.046875 65.621094 C 278 65.636719 278.03125 65.800781 278.113281 65.984375 C 278.195312 66.167969 278.265625 66.335938 278.269531 66.363281 C 278.277344 66.390625 278.378906 66.542969 278.496094 66.710938 C 278.613281 66.875 278.707031 67.050781 278.707031 67.101562 C 278.707031 67.152344 278.773438 67.25 278.855469 67.316406 C 278.9375 67.382812 278.984375 67.488281 278.957031 67.554688 C 278.933594 67.617188 278.972656 67.78125 279.042969 67.917969 C 279.117188 68.054688 279.148438 68.167969 279.117188 68.167969 C 279.089844 68.167969 279.105469 68.222656 279.15625 68.289062 C 279.207031 68.351562 279.25 68.589844 279.253906 68.808594 C 279.253906 69.183594 279.238281 69.214844 279 69.214844 C 278.863281 69.214844 278.6875 69.265625 278.617188 69.332031 C 278.53125 69.414062 278.511719 69.414062 278.550781 69.339844 C 278.597656 69.261719 278.5 69.214844 278.261719 69.195312 C 277.863281 69.164062 276.804688 69.601562 276.804688 69.800781 C 276.804688 69.863281 276.71875 70.011719 276.605469 70.128906 C 276.4375 70.3125 276.414062 70.414062 276.46875 70.773438 C 276.503906 71.011719 276.597656 71.269531 276.671875 71.34375 C 276.742188 71.421875 276.804688 71.511719 276.804688 71.546875 C 276.804688 71.582031 276.960938 72.101562 277.15625 72.699219 C 277.410156 73.496094 277.539062 73.773438 277.632812 73.730469 C 277.710938 73.707031 277.742188 73.726562 277.707031 73.78125 C 277.644531 73.886719 277.902344 74.800781 278.109375 75.203125 C 278.175781 75.332031 278.230469 75.507812 278.230469 75.59375 C 278.234375 75.804688 278.5 76.425781 278.71875 76.734375 C 278.816406 76.878906 278.898438 77.078125 278.898438 77.183594 C 278.898438 77.292969 278.949219 77.410156 279.003906 77.445312 C 279.132812 77.519531 278.898438 77.671875 278.582031 77.722656 C 277.796875 77.839844 277.574219 77.898438 277.257812 78.039062 C 277.0625 78.125 276.902344 78.234375 276.902344 78.277344 C 276.902344 78.320312 276.816406 78.484375 276.707031 78.636719 C 276.597656 78.78125 276.535156 78.910156 276.558594 78.910156 C 276.589844 78.910156 276.539062 78.996094 276.449219 79.105469 C 276.355469 79.207031 276.257812 79.390625 276.230469 79.507812 C 276.171875 79.746094 276.367188 80.535156 276.582031 80.925781 C 276.65625 81.074219 276.699219 81.191406 276.660156 81.191406 C 276.625 81.191406 276.726562 81.347656 276.878906 81.546875 C 277.035156 81.742188 277.246094 82.070312 277.355469 82.28125 C 277.460938 82.496094 277.640625 82.757812 277.746094 82.871094 C 277.859375 82.988281 277.925781 83.140625 277.894531 83.210938 C 277.867188 83.289062 277.910156 83.402344 277.992188 83.46875 C 278.074219 83.535156 278.136719 83.625 278.136719 83.671875 C 278.136719 83.714844 278.285156 84.074219 278.472656 84.46875 C 278.65625 84.863281 278.832031 85.308594 278.863281 85.457031 C 278.898438 85.625 278.992188 85.753906 279.105469 85.785156 C 279.242188 85.820312 279.277344 85.886719 279.234375 86.023438 C 279.203125 86.128906 279.21875 86.292969 279.269531 86.390625 C 279.402344 86.640625 279.503906 86.929688 279.484375 87.015625 C 279.472656 87.058594 279.527344 87.214844 279.609375 87.367188 C 279.691406 87.519531 279.773438 87.804688 279.796875 88 C 279.824219 88.191406 279.890625 88.394531 279.941406 88.453125 C 279.996094 88.503906 280.039062 88.636719 280.042969 88.742188 C 280.042969 88.847656 280.109375 89.023438 280.183594 89.125 C 280.261719 89.226562 280.300781 89.378906 280.273438 89.46875 C 280.246094 89.5625 280.261719 89.660156 280.316406 89.695312 C 280.367188 89.726562 280.382812 89.816406 280.351562 89.898438 C 280.324219 89.984375 280.34375 90.074219 280.398438 90.113281 C 280.457031 90.148438 280.515625 90.355469 280.527344 90.582031 C 280.542969 90.800781 280.582031 90.980469 280.617188 90.980469 C 280.652344 90.980469 280.683594 91.078125 280.6875 91.195312 C 280.695312 91.488281 280.882812 92.613281 280.953125 92.785156 C 280.984375 92.867188 281.023438 93.1875 281.039062 93.496094 C 281.0625 93.8125 281.089844 94.242188 281.113281 94.449219 C 281.257812 95.871094 281.285156 97.855469 281.179688 98.679688 C 281.113281 99.175781 281.046875 99.648438 281.039062 99.722656 C 281.03125 99.800781 280.972656 100.015625 280.917969 100.199219 C 280.863281 100.382812 280.785156 100.789062 280.75 101.105469 C 280.714844 101.414062 280.652344 101.714844 280.613281 101.765625 C 280.570312 101.824219 280.511719 102.015625 280.484375 102.195312 C 280.328125 103.183594 279.796875 104.816406 279.453125 105.382812 C 279.355469 105.539062 279.277344 105.722656 279.277344 105.792969 C 279.277344 105.863281 279.15625 106.1875 279.003906 106.507812 C 278.855469 106.828125 278.703125 107.203125 278.671875 107.339844 C 278.640625 107.480469 278.398438 107.820312 278.128906 108.101562 C 277.863281 108.378906 277.609375 108.707031 277.5625 108.824219 C 277.507812 108.964844 277.425781 109.015625 277.324219 108.976562 C 277.222656 108.933594 277.179688 108.964844 277.203125 109.066406 C 277.230469 109.210938 277.039062 109.417969 276.609375 109.703125 C 276.492188 109.785156 276.257812 109.964844 276.089844 110.109375 C 275.921875 110.253906 275.71875 110.371094 275.636719 110.371094 C 275.558594 110.371094 275.476562 110.410156 275.460938 110.460938 C 275.433594 110.542969 274.753906 110.71875 274.148438 110.796875 C 273.367188 110.902344 272.53125 110.972656 271.867188 110.988281 C 270.058594 111.027344 267.996094 111.148438 267.691406 111.230469 C 267.503906 111.277344 267.320312 111.277344 267.261719 111.230469 C 267.207031 111.1875 266.921875 111.171875 266.636719 111.191406 C 265.75 111.261719 265.683594 111.214844 265.683594 110.566406 C 265.683594 110.25 265.632812 109.949219 265.566406 109.878906 C 265.5 109.8125 265.449219 109.699219 265.449219 109.636719 C 265.449219 109.460938 264.742188 109.132812 264.355469 109.132812 C 264.097656 109.132812 263.949219 109.203125 263.722656 109.445312 C 263.300781 109.890625 263.242188 110.066406 263.269531 110.726562 L 263.296875 111.324219 L 262.898438 111.332031 C 262.136719 111.355469 262.007812 111.28125 262.175781 110.914062 C 262.242188 110.773438 262.257812 110.59375 262.210938 110.492188 C 262.171875 110.402344 262.144531 110.289062 262.15625 110.253906 C 262.160156 110.214844 262.125 110.183594 262.070312 110.183594 C 262.011719 110.183594 262.042969 110.054688 262.136719 109.898438 C 262.261719 109.683594 262.285156 109.550781 262.210938 109.359375 C 262.160156 109.214844 262.089844 109.109375 262.050781 109.117188 C 262.007812 109.132812 261.90625 109.078125 261.832031 109 C 261.699219 108.867188 261.117188 108.660156 260.871094 108.660156 C 260.667969 108.660156 260.1875 109.191406 259.992188 109.628906 C 259.777344 110.109375 259.71875 110.65625 259.839844 111.03125 C 259.90625 111.246094 259.902344 111.257812 259.761719 111.144531 C 259.667969 111.0625 259.507812 111.042969 259.324219 111.082031 C 259.167969 111.113281 258.984375 111.109375 258.917969 111.070312 C 258.851562 111.023438 258.605469 110.925781 258.371094 110.84375 C 258.058594 110.734375 257.949219 110.644531 257.941406 110.484375 C 257.929688 110.367188 257.960938 110.242188 258 110.21875 C 258.046875 110.191406 258.082031 110.105469 258.082031 110.035156 C 258.082031 109.957031 258.199219 109.65625 258.34375 109.363281 C 258.746094 108.542969 258.785156 108.472656 258.867188 108.472656 C 259.003906 108.472656 259.507812 108.054688 259.507812 107.941406 C 259.507812 107.808594 259.804688 107.667969 260.394531 107.515625 C 260.648438 107.449219 260.988281 107.300781 261.15625 107.195312 C 261.453125 106.988281 262.894531 106.5625 263.269531 106.566406 C 263.378906 106.566406 263.5 106.535156 263.539062 106.496094 C 263.582031 106.457031 264.171875 106.425781 264.863281 106.421875 C 266.078125 106.414062 266.769531 106.316406 266.714844 106.15625 C 266.699219 106.113281 266.757812 106.039062 266.851562 105.988281 C 266.941406 105.9375 267.019531 105.828125 267.019531 105.746094 C 267.019531 105.671875 267.050781 105.625 267.09375 105.652344 C 267.421875 105.855469 267.554688 104.804688 267.242188 104.460938 C 267.144531 104.359375 266.9375 104.214844 266.777344 104.148438 C 266.621094 104.082031 266.21875 103.765625 265.886719 103.445312 C 265.550781 103.125 265.246094 102.886719 265.207031 102.910156 C 265.171875 102.9375 265.082031 102.890625 265.015625 102.816406 C 264.957031 102.734375 264.84375 102.671875 264.777344 102.671875 C 264.710938 102.671875 264.628906 102.597656 264.59375 102.503906 C 264.5625 102.414062 264.351562 102.132812 264.117188 101.882812 C 263.882812 101.628906 263.6875 101.363281 263.6875 101.292969 C 263.6875 101.214844 263.613281 101.085938 263.515625 100.988281 C 263.414062 100.894531 263.3125 100.710938 263.28125 100.578125 C 263.140625 99.945312 263 99.46875 262.917969 99.316406 C 262.8125 99.113281 262.78125 96.5625 262.882812 96.394531 C 262.925781 96.332031 262.964844 96.121094 262.976562 95.925781 C 262.984375 95.734375 263.023438 95.535156 263.046875 95.484375 C 263.078125 95.4375 263.128906 95.203125 263.167969 94.957031 C 263.214844 94.632812 263.300781 94.46875 263.496094 94.328125 C 263.664062 94.199219 263.800781 93.972656 263.882812 93.675781 C 263.949219 93.421875 264.105469 93.078125 264.226562 92.910156 C 264.351562 92.742188 264.453125 92.5625 264.453125 92.511719 C 264.453125 92.453125 264.523438 92.40625 264.617188 92.402344 C 264.757812 92.402344 264.761719 92.386719 264.640625 92.304688 C 264.519531 92.226562 264.519531 92.199219 264.667969 92.113281 C 264.757812 92.0625 264.828125 91.949219 264.828125 91.875 C 264.828125 91.792969 264.871094 91.757812 264.921875 91.78125 C 264.964844 91.8125 265.257812 91.589844 265.5625 91.289062 C 266.21875 90.625 267.386719 89.6875 267.503906 89.71875 C 267.546875 89.734375 267.589844 89.703125 267.589844 89.660156 C 267.589844 89.578125 268.3125 89.402344 268.476562 89.445312 C 268.519531 89.453125 268.613281 89.417969 268.679688 89.363281 C 268.941406 89.148438 270.59375 88.832031 271.246094 88.875 C 272.273438 88.941406 272.574219 88.929688 272.554688 88.824219 C 272.542969 88.757812 272.589844 88.726562 272.660156 88.757812 C 272.746094 88.789062 272.828125 88.703125 272.894531 88.511719 C 272.949219 88.355469 273.042969 88.222656 273.101562 88.222656 C 273.160156 88.222656 273.183594 88.1875 273.152344 88.140625 C 273.125 88.089844 273.164062 88.027344 273.246094 88 C 273.445312 87.921875 273.421875 87.382812 273.210938 87.035156 C 272.90625 86.53125 272.253906 86.371094 270.601562 86.375 C 269.65625 86.378906 269.160156 86.421875 269.085938 86.496094 C 269.023438 86.558594 268.8125 86.609375 268.605469 86.609375 C 268.402344 86.609375 268.164062 86.648438 268.074219 86.699219 C 267.976562 86.746094 267.78125 86.8125 267.632812 86.835938 C 267.488281 86.863281 267.324219 86.929688 267.269531 86.984375 C 267.210938 87.042969 267.070312 87.082031 266.945312 87.082031 C 266.832031 87.082031 266.65625 87.175781 266.566406 87.28125 C 266.472656 87.386719 266.269531 87.53125 266.113281 87.597656 C 265.960938 87.664062 265.640625 87.890625 265.410156 88.105469 C 265.179688 88.320312 264.878906 88.542969 264.738281 88.605469 C 264.59375 88.664062 264.421875 88.8125 264.351562 88.941406 C 264.285156 89.066406 264.175781 89.175781 264.109375 89.175781 C 264.050781 89.175781 263.871094 89.332031 263.722656 89.519531 C 263.371094 89.972656 262.773438 90.644531 262.394531 91.019531 C 262.105469 91.304688 261.789062 91.910156 261.789062 92.183594 C 261.789062 92.261719 261.707031 92.40625 261.605469 92.519531 C 261.222656 92.925781 260.84375 93.933594 260.695312 94.921875 C 260.675781 95.082031 260.609375 95.382812 260.550781 95.589844 C 260.496094 95.800781 260.429688 96.355469 260.40625 96.828125 C 260.375 97.296875 260.339844 97.898438 260.324219 98.15625 C 260.28125 98.710938 260.433594 99.855469 260.546875 99.898438 C 260.59375 99.914062 260.609375 100.003906 260.582031 100.105469 C 260.527344 100.320312 260.816406 101.324219 260.996094 101.539062 C 261.066406 101.617188 261.121094 101.769531 261.121094 101.875 C 261.121094 101.96875 261.21875 102.203125 261.332031 102.386719 C 261.441406 102.570312 261.648438 102.933594 261.773438 103.1875 C 262.023438 103.679688 262.292969 104 262.457031 104 C 262.507812 104 262.546875 104.046875 262.546875 104.097656 C 262.546875 104.148438 262.429688 104.195312 262.289062 104.195312 C 262.074219 104.195312 261.015625 104.398438 260.601562 104.515625 C 260.378906 104.582031 260.113281 104.703125 259.980469 104.804688 C 259.90625 104.867188 259.644531 105 259.410156 105.101562 C 258.671875 105.417969 257.933594 105.960938 256.976562 106.902344 C 256.605469 107.265625 256.269531 107.664062 256.234375 107.78125 C 256.199219 107.898438 256.132812 107.992188 256.082031 107.992188 C 256.035156 107.992188 255.976562 108.15625 255.945312 108.351562 C 255.914062 108.546875 255.84375 108.78125 255.792969 108.878906 C 255.742188 108.972656 255.726562 109.089844 255.757812 109.140625 C 255.785156 109.191406 255.769531 109.230469 255.71875 109.230469 C 255.578125 109.230469 255.472656 109.957031 255.5 110.753906 C 255.523438 111.457031 255.652344 111.984375 255.808594 111.984375 C 255.851562 111.984375 255.960938 112.113281 256.054688 112.269531 C 256.164062 112.453125 256.300781 112.554688 256.433594 112.554688 C 256.550781 112.554688 256.683594 112.609375 256.722656 112.675781 C 256.792969 112.785156 257.226562 113.019531 257.65625 113.175781 C 257.757812 113.21875 258.007812 113.261719 258.210938 113.273438 C 258.410156 113.289062 258.652344 113.371094 258.75 113.460938 C 258.847656 113.546875 258.980469 113.605469 259.046875 113.582031 C 259.109375 113.558594 259.316406 113.59375 259.5 113.65625 C 259.703125 113.726562 259.914062 113.742188 260.042969 113.691406 C 260.15625 113.648438 260.265625 113.628906 260.28125 113.648438 C 260.433594 113.796875 262.140625 113.914062 262.226562 113.777344 C 262.257812 113.726562 262.371094 113.746094 262.503906 113.832031 C 262.699219 113.960938 262.726562 113.960938 262.777344 113.828125 C 262.816406 113.726562 262.890625 113.699219 263 113.75 C 263.21875 113.847656 263.882812 113.875 263.882812 113.78125 C 263.882812 113.707031 264.988281 113.761719 265.125 113.84375 C 265.171875 113.875 265.210938 113.832031 265.210938 113.75 C 265.210938 113.671875 265.257812 113.605469 265.3125 113.605469 C 265.367188 113.605469 265.382812 113.644531 265.355469 113.695312 C 265.324219 113.75 265.363281 113.792969 265.445312 113.792969 C 265.527344 113.792969 265.59375 113.757812 265.59375 113.710938 C 265.59375 113.664062 265.769531 113.660156 265.996094 113.699219 C 266.21875 113.742188 266.40625 113.746094 266.421875 113.710938 C 266.4375 113.679688 266.894531 113.65625 267.445312 113.660156 C 268 113.664062 268.476562 113.628906 268.5 113.589844 C 268.527344 113.542969 268.601562 113.507812 268.664062 113.507812 C 268.730469 113.507812 268.71875 113.546875 268.632812 113.605469 C 268.433594 113.730469 268.578125 113.722656 268.871094 113.582031 C 269.074219 113.492188 269.136719 113.496094 269.207031 113.609375 C 269.257812 113.691406 269.292969 113.699219 269.292969 113.632812 C 269.300781 113.558594 269.570312 113.515625 270.128906 113.507812 C 272.882812 113.460938 274.433594 113.347656 274.433594 113.203125 C 274.433594 113.15625 274.472656 113.140625 274.523438 113.175781 C 274.578125 113.207031 274.671875 113.203125 274.730469 113.167969 C 274.839844 113.101562 275.382812 113.011719 275.6875 113.019531 C 275.78125 113.019531 275.878906 112.976562 275.910156 112.933594 C 275.9375 112.882812 276.046875 112.839844 276.148438 112.839844 C 276.253906 112.839844 276.363281 112.777344 276.390625 112.699219 C 276.421875 112.621094 276.625 112.515625 276.839844 112.457031 C 277.496094 112.285156 277.5625 112.265625 277.683594 112.144531 C 277.75 112.078125 278.011719 111.882812 278.261719 111.710938 C 278.515625 111.535156 278.746094 111.339844 278.769531 111.273438 C 278.796875 111.199219 278.882812 111.171875 278.964844 111.199219 C 279.074219 111.242188 279.09375 111.210938 279.042969 111.054688 C 279 110.902344 279.015625 110.859375 279.109375 110.894531 C 279.367188 110.996094 280.527344 109.382812 280.375 109.140625 C 280.339844 109.082031 280.378906 109.011719 280.460938 108.980469 C 280.542969 108.949219 280.609375 108.875 280.613281 108.816406 C 280.613281 108.757812 280.742188 108.542969 280.894531 108.339844 C 281.15625 107.988281 281.203125 107.96875 281.675781 107.972656 C 281.953125 107.972656 282.222656 107.941406 282.273438 107.902344 C 282.398438 107.804688 282.910156 107.671875 283.058594 107.699219 C 283.125 107.707031 283.175781 107.675781 283.175781 107.625 C 283.175781 107.582031 283.25 107.515625 283.34375 107.484375 C 283.433594 107.453125 283.648438 107.339844 283.816406 107.234375 C 283.988281 107.132812 284.125 107.09375 284.125 107.148438 C 284.125 107.199219 284.167969 107.21875 284.222656 107.183594 C 284.273438 107.152344 284.292969 107.085938 284.261719 107.035156 C 284.234375 106.988281 284.253906 106.949219 284.308594 106.949219 C 284.367188 106.949219 284.410156 106.984375 284.410156 107.035156 C 284.410156 107.1875 285.480469 106.546875 285.527344 106.363281 C 285.558594 106.257812 285.660156 106.1875 285.796875 106.1875 C 285.917969 106.1875 286.070312 106.109375 286.140625 106.019531 C 286.207031 105.925781 286.414062 105.742188 286.59375 105.617188 C 286.972656 105.355469 287.546875 104.796875 287.546875 104.6875 C 287.546875 104.648438 287.628906 104.566406 287.734375 104.5 C 287.894531 104.402344 287.914062 104.410156 287.859375 104.542969 C 287.824219 104.648438 287.835938 104.671875 287.910156 104.628906 C 287.96875 104.59375 288.019531 104.476562 288.019531 104.375 C 288.019531 104.265625 288.066406 104.207031 288.117188 104.242188 C 288.21875 104.300781 288.398438 104.175781 288.71875 103.816406 C 288.992188 103.507812 289.21875 103.289062 289.832031 102.714844 C 290.117188 102.449219 290.433594 102.085938 290.535156 101.910156 C 290.632812 101.730469 290.8125 101.5 290.933594 101.394531 C 291.164062 101.1875 291.539062 100.519531 291.539062 100.320312 C 291.539062 100.253906 291.585938 100.199219 291.640625 100.199219 C 291.808594 100.199219 292.039062 99.917969 291.980469 99.78125 C 291.957031 99.703125 292.003906 99.628906 292.09375 99.609375 C 292.179688 99.582031 292.339844 99.398438 292.445312 99.195312 C 292.546875 98.992188 292.660156 98.808594 292.695312 98.792969 C 292.730469 98.777344 292.835938 98.519531 292.925781 98.222656 C 293.015625 97.925781 293.160156 97.605469 293.246094 97.519531 C 293.546875 97.195312 293.617188 97.082031 293.566406 97.027344 C 293.535156 96.996094 293.554688 96.914062 293.617188 96.84375 C 293.679688 96.769531 293.699219 96.691406 293.667969 96.65625 C 293.636719 96.625 293.691406 96.480469 293.796875 96.332031 C 293.902344 96.1875 293.964844 96.011719 293.941406 95.945312 C 293.917969 95.878906 293.96875 95.804688 294.050781 95.769531 C 294.132812 95.738281 294.203125 95.609375 294.203125 95.484375 C 294.203125 95.359375 294.238281 95.257812 294.277344 95.257812 C 294.324219 95.257812 294.417969 95.074219 294.480469 94.851562 C 294.542969 94.632812 294.640625 94.375 294.691406 94.28125 C 294.738281 94.183594 294.753906 94.066406 294.714844 94.011719 C 294.6875 93.960938 294.726562 93.839844 294.808594 93.746094 C 294.960938 93.578125 295.164062 92.457031 295.082031 92.238281 C 295.058594 92.171875 295.074219 92.121094 295.125 92.121094 C 295.226562 92.121094 295.015625 90.785156 294.875 90.515625 C 294.761719 90.308594 293.886719 89.996094 293.636719 90.074219 C 293.417969 90.148438 293.304688 89.800781 293.496094 89.644531 C 293.570312 89.582031 293.605469 89.496094 293.574219 89.449219 C 293.546875 89.402344 293.570312 89.363281 293.628906 89.363281 C 293.679688 89.363281 293.722656 89.285156 293.722656 89.191406 C 293.722656 89.09375 293.753906 88.988281 293.796875 88.945312 C 293.832031 88.910156 293.867188 88.757812 293.867188 88.609375 C 293.871094 88.460938 293.925781 88.273438 294 88.191406 C 294.066406 88.109375 294.101562 88.003906 294.070312 87.957031 C 294.039062 87.914062 294.082031 87.789062 294.152344 87.691406 C 294.226562 87.589844 294.289062 87.394531 294.292969 87.246094 C 294.292969 87.097656 294.34375 86.882812 294.40625 86.773438 C 294.542969 86.511719 294.589844 85.894531 294.609375 83.988281 C 294.625 82.949219 294.59375 82.414062 294.519531 82.320312 C 294.457031 82.25 294.367188 82.015625 294.304688 81.800781 C 294.242188 81.5625 294.019531 81.214844 293.730469 80.902344 C 293.464844 80.617188 293.25 80.355469 293.25 80.320312 C 293.25 80.238281 292.65625 80 292.539062 80.035156 C 292.488281 80.050781 292.128906 80.0625 291.753906 80.0625 C 291.359375 80.054688 291.066406 80.089844 291.066406 80.148438 C 291.066406 80.199219 291.011719 80.238281 290.945312 80.238281 C 290.867188 80.238281 290.828125 80.078125 290.820312 79.753906 C 290.816406 79.492188 290.761719 79.242188 290.699219 79.207031 C 290.636719 79.164062 290.546875 78.996094 290.5 78.828125 C 290.445312 78.640625 290.445312 78.546875 290.5 78.578125 C 290.628906 78.660156 290.601562 78.519531 290.445312 78.242188 C 290.375 78.109375 290.308594 77.890625 290.308594 77.75 C 290.308594 77.613281 290.261719 77.46875 290.210938 77.433594 C 290.15625 77.402344 290.113281 77.300781 290.113281 77.214844 C 290.113281 77.125 289.988281 76.898438 289.832031 76.722656 C 289.675781 76.539062 289.546875 76.292969 289.546875 76.175781 C 289.542969 76.058594 289.496094 75.960938 289.4375 75.960938 C 289.375 75.960938 289.351562 75.859375 289.375 75.71875 C 289.417969 75.523438 289.375 75.453125 289.199219 75.386719 C 289.074219 75.339844 288.972656 75.253906 288.972656 75.195312 C 288.972656 75.019531 288 73.871094 287.449219 73.394531 C 286.570312 72.636719 285.816406 72.304688 285.007812 72.320312 C 284.738281 72.332031 284.621094 72.300781 284.664062 72.230469 C 284.707031 72.164062 284.664062 72.152344 284.542969 72.203125 C 284.445312 72.246094 284.222656 72.332031 284.054688 72.394531 C 283.882812 72.460938 283.648438 72.632812 283.53125 72.789062 C 283.414062 72.941406 283.21875 73.171875 283.097656 73.289062 C 282.964844 73.417969 282.898438 73.5625 282.933594 73.65625 C 283.007812 73.847656 282.808594 74.464844 282.632812 74.566406 C 282.53125 74.628906 282.527344 74.679688 282.605469 74.769531 C 282.722656 74.914062 282.699219 75.121094 282.558594 75.222656 C 282.40625 75.332031 282.429688 78.644531 282.582031 78.695312 C 282.675781 78.726562 282.679688 78.773438 282.605469 78.863281 C 282.53125 78.949219 282.53125 79.007812 282.605469 79.046875 C 282.660156 79.082031 282.675781 79.15625 282.644531 79.207031 C 282.613281 79.257812 282.628906 79.347656 282.675781 79.414062 C 282.726562 79.476562 282.757812 79.828125 282.746094 80.191406 C 282.734375 80.558594 282.761719 81.027344 282.800781 81.238281 C 282.882812 81.640625 283.007812 83.664062 283.015625 84.710938 C 283.027344 85.542969 282.890625 88.140625 282.828125 88.320312 C 282.773438 88.492188 282.511719 87.808594 282.511719 87.472656 C 282.511719 87.351562 282.425781 87.113281 282.320312 86.941406 C 282.214844 86.773438 282.0625 86.296875 281.984375 85.886719 C 281.902344 85.472656 281.6875 84.832031 281.507812 84.453125 C 281.324219 84.082031 281.179688 83.753906 281.179688 83.722656 C 281.179688 83.691406 281.054688 83.394531 280.910156 83.070312 C 280.753906 82.746094 280.519531 82.226562 280.382812 81.925781 C 280.246094 81.625 280.074219 81.347656 279.996094 81.324219 C 279.921875 81.292969 279.832031 81.140625 279.796875 80.988281 C 279.761719 80.828125 279.664062 80.675781 279.585938 80.648438 C 279.34375 80.554688 279.746094 80.441406 280.039062 80.523438 C 280.644531 80.683594 281.46875 80.269531 281.757812 79.660156 C 282.144531 78.847656 282.257812 78.460938 282.121094 78.378906 C 282.074219 78.351562 282.035156 78.203125 282.035156 78.054688 C 282.035156 77.902344 281.992188 77.753906 281.941406 77.71875 C 281.886719 77.6875 281.84375 77.601562 281.84375 77.523438 C 281.84375 77.449219 281.738281 77.164062 281.605469 76.894531 C 281.480469 76.625 281.371094 76.332031 281.371094 76.246094 C 281.371094 76.164062 281.265625 75.953125 281.132812 75.773438 C 281 75.59375 280.894531 75.402344 280.894531 75.347656 C 280.894531 75.289062 280.820312 75.136719 280.730469 75.011719 C 280.636719 74.882812 280.515625 74.582031 280.464844 74.347656 C 280.398438 74.058594 280.300781 73.890625 280.148438 73.8125 C 280.011719 73.746094 279.964844 73.675781 280.03125 73.640625 C 280.089844 73.605469 280.132812 73.535156 280.132812 73.484375 C 280.132812 73.425781 280.09375 73.410156 280.042969 73.441406 C 279.992188 73.472656 279.921875 73.378906 279.886719 73.234375 C 279.847656 73.085938 279.792969 72.925781 279.753906 72.871094 C 279.71875 72.820312 279.679688 72.714844 279.679688 72.636719 C 279.679688 72.554688 279.644531 72.410156 279.605469 72.300781 C 279.542969 72.148438 279.554688 72.132812 279.664062 72.21875 C 279.839844 72.359375 280.863281 72.386719 280.9375 72.253906 C 280.972656 72.203125 281.082031 72.160156 281.183594 72.160156 C 281.304688 72.160156 281.371094 72.097656 281.371094 71.96875 C 281.371094 71.863281 281.433594 71.78125 281.515625 71.78125 C 281.589844 71.78125 281.65625 71.699219 281.65625 71.597656 C 281.65625 71.496094 281.703125 71.398438 281.757812 71.378906 C 281.820312 71.359375 281.90625 70.941406 281.953125 70.453125 C 282.046875 69.484375 281.957031 68.558594 281.703125 67.949219 C 281.621094 67.753906 281.554688 67.566406 281.554688 67.527344 C 281.554688 67.371094 281.449219 67.125 281.382812 67.125 C 281.339844 67.125 281.234375 66.851562 281.140625 66.527344 C 281.050781 66.203125 280.914062 65.804688 280.835938 65.652344 C 280.601562 65.179688 280.191406 64.492188 280.027344 64.300781 C 279.941406 64.207031 279.847656 64.023438 279.820312 63.890625 C 279.789062 63.757812 279.675781 63.558594 279.570312 63.445312 L 279.378906 63.242188 L 279.589844 63.105469 C 279.707031 63.03125 279.992188 62.96875 280.226562 62.96875 C 280.457031 62.96875 280.664062 62.921875 280.683594 62.863281 C 280.699219 62.804688 280.777344 62.785156 280.847656 62.8125 C 281.054688 62.890625 281.9375 62.671875 282.222656 62.46875 C 282.363281 62.363281 282.507812 62.308594 282.539062 62.335938 C 282.566406 62.367188 282.625 62.28125 282.660156 62.140625 C 282.695312 62 282.695312 61.859375 282.664062 61.828125 C 282.632812 61.796875 282.648438 61.714844 282.699219 61.65625 C 282.800781 61.53125 282.84375 60.816406 282.765625 60.566406 C 282.742188 60.484375 282.691406 60.324219 282.648438 60.210938 C 282.613281 60.09375 282.546875 59.996094 282.5 59.996094 C 282.460938 59.996094 282.238281 59.691406 282.011719 59.316406 C 281.789062 58.941406 281.535156 58.527344 281.441406 58.390625 C 281.351562 58.253906 281.195312 57.988281 281.085938 57.804688 C 280.832031 57.359375 280.683594 57.191406 280.492188 57.117188 C 280.394531 57.078125 280.347656 56.996094 280.382812 56.910156 C 280.414062 56.828125 280.394531 56.761719 280.332031 56.761719 C 280.277344 56.761719 280.230469 56.722656 280.230469 56.664062 C 280.230469 56.539062 279.542969 55.621094 279.453125 55.621094 C 279.410156 55.621094 279.289062 55.523438 279.183594 55.40625 C 279.070312 55.289062 278.921875 55.195312 278.855469 55.195312 C 278.722656 55.195312 277.757812 54.210938 277.757812 54.082031 C 277.757812 53.980469 278.414062 53.339844 278.515625 53.339844 C 278.566406 53.339844 278.652344 53.253906 278.707031 53.152344 C 278.765625 53.050781 278.839844 52.972656 278.875 52.984375 C 278.917969 53 279.117188 52.835938 279.320312 52.628906 C 279.644531 52.296875 279.691406 52.195312 279.6875 51.816406 C 279.675781 51.1875 279.425781 50.691406 278.835938 50.132812 C 278.546875 49.859375 278.269531 49.632812 278.226562 49.632812 C 278.179688 49.632812 278.027344 49.507812 277.890625 49.355469 C 277.75 49.195312 277.605469 49.089844 277.5625 49.113281 C 277.515625 49.140625 277.371094 49.054688 277.226562 48.921875 C 277.085938 48.792969 276.925781 48.683594 276.875 48.683594 C 276.828125 48.683594 276.589844 48.550781 276.347656 48.386719 C 276.101562 48.21875 275.695312 48.015625 275.433594 47.929688 C 275.074219 47.800781 274.945312 47.703125 274.875 47.5 C 274.8125 47.3125 274.820312 47.214844 274.90625 47.164062 C 274.976562 47.117188 274.996094 47.011719 274.957031 46.878906 C 274.914062 46.765625 274.890625 46.050781 274.890625 45.289062 C 274.890625 44.207031 274.921875 43.878906 275.03125 43.757812 C 275.109375 43.671875 275.175781 43.492188 275.171875 43.359375 C 275.171875 43.230469 275.191406 42.683594 275.214844 42.144531 C 275.234375 41.609375 275.226562 41.152344 275.183594 41.125 C 275.148438 41.101562 275.121094 40.753906 275.121094 40.355469 C 275.121094 39.78125 275.089844 39.609375 274.964844 39.542969 C 274.792969 39.445312 274.757812 39.035156 274.910156 38.9375 C 274.964844 38.902344 274.988281 38.808594 274.957031 38.726562 C 274.925781 38.640625 274.957031 38.539062 275.023438 38.5 C 275.121094 38.433594 275.113281 38.398438 275.003906 38.316406 C 274.894531 38.238281 274.886719 38.203125 274.976562 38.167969 C 275.042969 38.136719 275.074219 38.074219 275.039062 38.019531 C 275.007812 37.96875 274.941406 37.46875 274.894531 36.914062 C 274.847656 36.355469 274.679688 35.367188 274.519531 34.710938 C 274.359375 34.058594 274.222656 33.449219 274.210938 33.355469 C 274.207031 33.265625 274.125 33.1875 274.039062 33.1875 C 273.839844 33.1875 273.730469 32.921875 273.867188 32.761719 C 274.019531 32.570312 273.734375 31.722656 273.421875 31.429688 C 273.21875 31.242188 273.066406 31.191406 272.671875 31.191406 C 272.339844 31.191406 272.128906 31.242188 272.054688 31.339844 M 246.953125 31.609375 C 246.554688 31.753906 246.152344 32.015625 246.152344 32.140625 C 246.152344 32.183594 246.011719 32.359375 245.84375 32.519531 C 245.667969 32.683594 245.488281 32.921875 245.441406 33.050781 C 245.390625 33.1875 245.273438 33.285156 245.171875 33.285156 C 244.96875 33.285156 244.742188 33.503906 244.839844 33.605469 C 244.875 33.636719 244.835938 33.667969 244.75 33.667969 C 244.566406 33.667969 244.398438 33.945312 244.398438 34.238281 C 244.398438 34.347656 244.269531 34.558594 244.113281 34.695312 C 243.953125 34.832031 243.828125 35.011719 243.828125 35.09375 C 243.828125 35.175781 243.761719 35.328125 243.683594 35.4375 C 243.609375 35.546875 243.570312 35.664062 243.601562 35.691406 C 243.636719 35.730469 243.609375 35.816406 243.542969 35.898438 C 243.476562 35.976562 243.445312 36.125 243.46875 36.226562 C 243.527344 36.429688 243.375 36.773438 242.921875 37.46875 C 242.546875 38.039062 242.207031 38.855469 242.152344 39.3125 C 242.121094 39.523438 242.058594 39.765625 242.015625 39.859375 C 241.964844 39.945312 241.921875 40.144531 241.921875 40.289062 C 241.921875 40.4375 241.816406 40.769531 241.6875 41.035156 C 241.5625 41.292969 241.453125 41.585938 241.453125 41.675781 C 241.449219 41.765625 241.414062 41.914062 241.367188 42.007812 C 241.277344 42.183594 241.082031 42.894531 241.03125 43.253906 C 241.011719 43.375 240.929688 43.695312 240.847656 43.96875 C 240.679688 44.523438 240.5 45.1875 240.507812 45.261719 C 240.511719 45.285156 240.460938 45.4375 240.398438 45.597656 C 240.332031 45.75 240.246094 46.175781 240.207031 46.542969 C 240.074219 47.683594 239.917969 48.425781 239.707031 48.871094 C 239.503906 49.304688 239.457031 49.746094 239.570312 50.25 C 239.601562 50.40625 239.65625 50.671875 239.691406 50.835938 C 239.734375 51.023438 239.84375 51.171875 239.992188 51.238281 C 240.121094 51.296875 240.203125 51.304688 240.171875 51.257812 C 240.140625 51.207031 240.210938 51.171875 240.328125 51.175781 C 240.886719 51.207031 241.152344 51.140625 241.386719 50.90625 C 241.714844 50.582031 242.117188 49.726562 242.117188 49.355469 C 242.117188 49.191406 242.171875 48.921875 242.242188 48.753906 C 242.308594 48.585938 242.351562 48.386719 242.324219 48.316406 C 242.292969 48.222656 242.320312 48.207031 242.402344 48.257812 C 242.492188 48.316406 242.511719 48.28125 242.472656 48.136719 C 242.441406 48.023438 242.496094 47.804688 242.597656 47.644531 C 242.695312 47.484375 242.84375 47.042969 242.925781 46.664062 C 243.011719 46.285156 243.117188 45.859375 243.175781 45.722656 C 243.265625 45.480469 243.328125 45.195312 243.394531 44.660156 C 243.414062 44.511719 243.519531 44.296875 243.636719 44.191406 L 243.851562 43.992188 L 243.648438 43.824219 C 243.519531 43.726562 243.480469 43.636719 243.542969 43.601562 C 243.59375 43.566406 243.613281 43.5 243.585938 43.453125 C 243.554688 43.40625 243.621094 43.121094 243.730469 42.820312 C 243.832031 42.519531 243.917969 42.199219 243.917969 42.101562 C 243.917969 42.011719 244.003906 41.855469 244.101562 41.753906 C 244.359375 41.492188 244.515625 41.183594 244.453125 41.027344 C 244.425781 40.953125 244.449219 40.871094 244.5 40.835938 C 244.550781 40.804688 244.570312 40.699219 244.535156 40.601562 C 244.5 40.480469 244.542969 40.382812 244.675781 40.300781 C 244.785156 40.234375 244.871094 40.109375 244.871094 40.015625 C 244.871094 39.929688 244.910156 39.828125 244.96875 39.796875 C 245.019531 39.765625 245.058594 39.644531 245.058594 39.527344 C 245.058594 39.410156 245.144531 39.144531 245.253906 38.941406 C 245.355469 38.738281 245.441406 38.515625 245.441406 38.449219 C 245.441406 38.375 245.5 38.351562 245.597656 38.390625 C 245.726562 38.4375 245.746094 38.410156 245.695312 38.28125 C 245.65625 38.179688 245.679688 38.039062 245.761719 37.953125 C 245.832031 37.867188 245.992188 37.566406 246.113281 37.277344 C 246.316406 36.78125 247.21875 34.914062 247.480469 34.445312 C 247.578125 34.265625 247.613281 34.253906 247.660156 34.375 C 247.691406 34.457031 247.796875 34.523438 247.894531 34.523438 C 248.09375 34.523438 248.480469 34.894531 248.484375 35.097656 C 248.492188 35.265625 248.90625 35.757812 249.050781 35.757812 C 249.101562 35.757812 249.148438 35.804688 249.148438 35.859375 C 249.148438 35.921875 249.273438 36.132812 249.433594 36.328125 C 249.589844 36.523438 249.71875 36.753906 249.71875 36.828125 C 249.71875 36.90625 249.824219 37.042969 249.957031 37.125 C 250.09375 37.214844 250.191406 37.375 250.191406 37.5 C 250.191406 37.617188 250.277344 37.8125 250.382812 37.921875 C 250.484375 38.035156 250.574219 38.207031 250.574219 38.316406 C 250.574219 38.609375 250.757812 39.007812 250.859375 38.941406 C 250.914062 38.90625 250.953125 39.007812 250.953125 39.1875 C 250.953125 39.347656 251.035156 39.640625 251.144531 39.832031 C 251.304688 40.136719 251.386719 40.5 251.585938 41.871094 C 251.671875 42.464844 252.339844 42.671875 253.144531 42.351562 C 253.402344 42.246094 253.515625 42.148438 253.480469 42.0625 C 253.449219 41.988281 253.464844 41.949219 253.511719 41.976562 C 253.632812 42.050781 253.761719 41.742188 253.796875 41.269531 C 253.8125 41.066406 253.828125 41.054688 253.90625 41.191406 C 253.957031 41.285156 254.058594 41.335938 254.125 41.308594 C 254.214844 41.273438 254.273438 41.363281 254.316406 41.578125 C 254.40625 42.058594 254.753906 42.308594 255.421875 42.378906 C 256.472656 42.492188 257.144531 41.964844 257.339844 40.886719 C 257.394531 40.570312 257.457031 40.332031 257.480469 40.351562 C 257.507812 40.378906 257.539062 40.667969 257.546875 41 C 257.578125 41.675781 257.761719 42.160156 257.960938 42.082031 C 258.03125 42.050781 258.066406 42.074219 258.03125 42.125 C 258 42.179688 258.027344 42.21875 258.089844 42.21875 C 258.152344 42.21875 258.257812 42.285156 258.316406 42.375 C 258.386719 42.46875 258.578125 42.527344 258.863281 42.53125 C 259.226562 42.535156 259.34375 42.492188 259.601562 42.234375 C 259.769531 42.074219 259.976562 41.882812 260.070312 41.816406 C 260.308594 41.640625 261.15625 40.414062 261.035156 40.414062 C 260.980469 40.414062 260.933594 40.371094 260.933594 40.320312 C 260.933594 40.269531 260.984375 40.25 261.050781 40.277344 C 261.203125 40.328125 261.324219 40.234375 261.480469 39.964844 C 261.625 39.707031 261.632812 39.625 261.496094 39.707031 C 261.4375 39.742188 261.464844 39.640625 261.546875 39.476562 C 261.632812 39.3125 261.742188 39.179688 261.800781 39.179688 C 261.851562 39.179688 261.832031 39.246094 261.75 39.328125 C 261.585938 39.492188 261.558594 39.558594 261.671875 39.558594 C 261.789062 39.558594 262.140625 38.953125 262.210938 38.636719 C 262.261719 38.390625 262.226562 38.296875 261.960938 38.015625 C 261.585938 37.621094 261.128906 37.425781 260.828125 37.519531 C 260.703125 37.558594 260.382812 37.820312 260.113281 38.101562 C 259.570312 38.667969 259.605469 38.695312 259.609375 37.683594 C 259.609375 37.410156 259.574219 37.183594 259.527344 37.183594 C 259.484375 37.183594 259.472656 37 259.503906 36.777344 C 259.566406 36.367188 259.433594 35.742188 259.207031 35.386719 C 259.066406 35.160156 258.835938 35.136719 258.195312 35.296875 C 257.691406 35.417969 257.414062 35.617188 257.414062 35.855469 C 257.414062 35.941406 257.355469 36.070312 257.273438 36.136719 C 257.195312 36.203125 257.152344 36.285156 257.171875 36.320312 C 257.195312 36.355469 257.042969 36.574219 256.839844 36.808594 C 256.636719 37.039062 256.328125 37.566406 256.160156 37.984375 C 255.894531 38.621094 255.84375 38.691406 255.820312 38.457031 C 255.761719 37.816406 255.25 37.082031 254.710938 36.863281 C 254.308594 36.703125 254.265625 36.703125 253.921875 36.847656 C 253.585938 37 253.332031 37.335938 253.332031 37.636719 C 253.332031 37.804688 253.097656 37.730469 253.078125 37.558594 L 253.058594 37.300781 C 253.046875 37.234375 252.980469 37.183594 252.90625 37.183594 C 252.816406 37.183594 252.789062 37.128906 252.824219 37.039062 C 252.859375 36.941406 252.828125 36.898438 252.746094 36.914062 C 252.660156 36.933594 252.613281 36.855469 252.613281 36.679688 C 252.613281 36.535156 252.558594 36.378906 252.492188 36.339844 C 252.421875 36.292969 252.375 36.234375 252.394531 36.203125 C 252.410156 36.167969 252.363281 36.066406 252.285156 35.972656 C 252.207031 35.875 252.050781 35.605469 251.933594 35.371094 C 251.816406 35.136719 251.585938 34.84375 251.421875 34.71875 C 251.261719 34.605469 251.085938 34.378906 251.03125 34.230469 C 250.980469 34.085938 250.78125 33.84375 250.589844 33.703125 C 250.398438 33.558594 250.15625 33.332031 250.046875 33.199219 C 249.726562 32.789062 249.117188 32.242188 248.984375 32.242188 C 248.917969 32.242188 248.863281 32.199219 248.863281 32.15625 C 248.863281 32.007812 248.074219 31.597656 247.675781 31.539062 C 247.453125 31.507812 247.152344 31.535156 246.953125 31.609375 M 273.578125 32.417969 C 273.578125 32.46875 273.617188 32.542969 273.667969 32.570312 C 273.722656 32.601562 273.765625 32.585938 273.765625 32.535156 C 273.765625 32.484375 273.722656 32.414062 273.667969 32.382812 C 273.617188 32.347656 273.578125 32.367188 273.578125 32.417969 M 248.695312 35.320312 C 248.761719 35.394531 248.832031 35.4375 248.847656 35.421875 C 248.902344 35.367188 248.761719 35.1875 248.664062 35.1875 C 248.613281 35.1875 248.621094 35.246094 248.695312 35.320312 M 274.90625 39.371094 C 274.90625 39.421875 274.949219 39.464844 275.003906 39.464844 C 275.054688 39.464844 275.09375 39.421875 275.09375 39.371094 C 275.09375 39.320312 275.054688 39.273438 275.003906 39.273438 C 274.949219 39.273438 274.90625 39.320312 274.90625 39.371094 M 243.980469 42.464844 C 243.871094 42.734375 243.921875 42.839844 244.066406 42.652344 C 244.140625 42.550781 244.203125 42.433594 244.203125 42.394531 C 244.203125 42.257812 244.035156 42.3125 243.980469 42.464844 M 243.777344 43.292969 C 243.695312 43.734375 243.78125 43.863281 243.917969 43.507812 C 243.980469 43.351562 243.984375 43.191406 243.929688 43.097656 C 243.855469 42.96875 243.828125 43.015625 243.777344 43.292969 M 214.078125 50.773438 C 213.785156 50.859375 213.464844 50.976562 213.363281 51.027344 C 213.257812 51.085938 213.003906 51.207031 212.792969 51.304688 C 212.351562 51.503906 211.488281 52.117188 211.097656 52.503906 C 210.949219 52.652344 210.792969 52.769531 210.75 52.769531 C 210.710938 52.769531 210.648438 52.847656 210.613281 52.9375 C 210.582031 53.03125 210.40625 53.359375 210.226562 53.671875 C 209.449219 55.03125 209.480469 54.925781 209.492188 55.976562 C 209.5 56.519531 209.554688 57.132812 209.617188 57.359375 C 209.773438 57.941406 209.808594 58.097656 209.886719 58.523438 C 209.921875 58.734375 210 58.988281 210.058594 59.09375 C 210.117188 59.195312 210.238281 59.449219 210.328125 59.660156 C 210.414062 59.867188 210.546875 60.097656 210.621094 60.164062 C 210.691406 60.234375 210.773438 60.40625 210.800781 60.550781 C 210.941406 61.167969 211.414062 61.914062 212.007812 62.460938 C 212.152344 62.59375 212.269531 62.75 212.269531 62.816406 C 212.269531 62.882812 212.386719 63 212.527344 63.074219 C 212.675781 63.15625 212.757812 63.21875 212.710938 63.222656 C 212.5625 63.226562 214.585938 65.128906 214.742188 65.128906 C 214.792969 65.128906 214.835938 65.171875 214.835938 65.230469 C 214.835938 65.351562 215.074219 65.601562 215.191406 65.601562 C 215.261719 65.601562 215.945312 66.128906 216.476562 66.597656 C 216.566406 66.675781 216.667969 66.742188 216.703125 66.742188 C 216.738281 66.742188 216.90625 66.847656 217.074219 66.980469 C 217.25 67.113281 217.433594 67.21875 217.484375 67.21875 C 217.59375 67.21875 218.398438 67.734375 218.691406 67.988281 C 218.792969 68.085938 219.070312 68.226562 219.300781 68.308594 C 219.535156 68.390625 219.753906 68.507812 219.785156 68.5625 C 219.820312 68.621094 219.96875 68.679688 220.105469 68.695312 C 220.246094 68.710938 220.4375 68.78125 220.523438 68.859375 C 220.609375 68.9375 221 69.113281 221.394531 69.261719 C 221.785156 69.410156 222.417969 69.667969 222.796875 69.847656 C 223.179688 70.019531 223.574219 70.164062 223.667969 70.164062 C 223.761719 70.164062 223.894531 70.222656 223.949219 70.296875 C 224.011719 70.371094 224.179688 70.457031 224.320312 70.488281 C 224.464844 70.523438 224.726562 70.589844 224.910156 70.632812 C 225.09375 70.675781 225.742188 70.84375 226.347656 71.003906 C 226.953125 71.167969 227.585938 71.28125 227.746094 71.261719 C 227.921875 71.242188 228.105469 71.277344 228.175781 71.355469 C 228.277344 71.457031 228.332031 71.457031 228.429688 71.371094 C 228.519531 71.28125 228.535156 71.28125 228.480469 71.375 C 228.441406 71.449219 228.476562 71.496094 228.582031 71.496094 C 228.675781 71.496094 228.878906 71.539062 229.039062 71.582031 C 229.960938 71.863281 230.683594 71.976562 231.769531 71.996094 C 232.035156 72 232.210938 72.046875 232.199219 72.109375 C 232.1875 72.164062 232.351562 72.214844 232.5625 72.226562 C 232.773438 72.234375 233.066406 72.265625 233.226562 72.296875 C 233.695312 72.371094 234.84375 72.394531 234.953125 72.320312 C 235.007812 72.285156 235.28125 72.316406 235.558594 72.386719 C 235.941406 72.488281 236.214844 72.5 236.734375 72.421875 C 237.105469 72.371094 237.492188 72.347656 237.597656 72.363281 C 238.042969 72.433594 240.105469 72.359375 240.496094 72.253906 C 240.734375 72.195312 241.027344 72.148438 241.152344 72.152344 C 241.28125 72.160156 241.4375 72.113281 241.503906 72.058594 C 241.574219 72 241.667969 71.976562 241.71875 72.007812 C 241.765625 72.035156 241.941406 72.019531 242.117188 71.96875 C 242.285156 71.917969 242.472656 71.910156 242.535156 71.945312 C 242.675781 72.035156 242.988281 71.980469 243.160156 71.832031 C 243.234375 71.765625 243.367188 71.710938 243.445312 71.710938 C 243.679688 71.707031 244.222656 71.589844 244.386719 71.503906 C 244.46875 71.460938 244.59375 71.445312 244.660156 71.472656 C 244.859375 71.542969 245.253906 71.410156 245.226562 71.277344 C 245.210938 71.21875 245.261719 71.175781 245.332031 71.191406 C 245.40625 71.207031 245.523438 71.167969 245.59375 71.105469 C 245.664062 71.042969 245.886719 70.984375 246.082031 70.972656 C 246.582031 70.9375 246.683594 70.902344 246.882812 70.710938 C 246.976562 70.621094 247.121094 70.542969 247.195312 70.542969 C 247.277344 70.542969 247.339844 70.507812 247.339844 70.457031 C 247.339844 70.414062 247.492188 70.347656 247.679688 70.3125 C 247.863281 70.28125 248.042969 70.1875 248.066406 70.117188 C 248.09375 70.046875 248.179688 70.011719 248.25 70.039062 C 248.328125 70.066406 248.386719 70.050781 248.386719 70.003906 C 248.386719 69.953125 248.652344 69.78125 248.980469 69.617188 C 249.308594 69.457031 249.855469 69.121094 250.191406 68.863281 C 250.53125 68.613281 250.929688 68.328125 251.070312 68.238281 C 251.214844 68.148438 251.332031 68.003906 251.332031 67.929688 C 251.332031 67.851562 251.386719 67.785156 251.453125 67.785156 C 251.519531 67.785156 251.652344 67.613281 251.75 67.402344 L 251.921875 67.023438 L 252.152344 67.265625 C 252.277344 67.402344 252.378906 67.546875 252.378906 67.589844 C 252.378906 67.722656 253.277344 68.070312 253.375 67.972656 C 253.425781 67.921875 253.628906 67.882812 253.828125 67.882812 C 254.023438 67.882812 254.1875 67.851562 254.1875 67.8125 C 254.1875 67.769531 254.28125 67.699219 254.390625 67.644531 C 254.503906 67.589844 254.65625 67.382812 254.722656 67.179688 C 254.839844 66.839844 254.835938 66.777344 254.625 66.421875 C 254.503906 66.207031 254.421875 65.976562 254.441406 65.910156 C 254.484375 65.808594 254.292969 65.742188 254.058594 65.785156 C 254.019531 65.789062 254.035156 65.707031 254.089844 65.605469 C 254.148438 65.5 254.152344 65.414062 254.105469 65.414062 C 254.066406 65.414062 253.96875 65.230469 253.898438 65.011719 C 253.738281 64.5 253.636719 64.363281 253.464844 64.429688 C 253.386719 64.460938 253.332031 64.425781 253.332031 64.359375 C 253.332031 64.179688 252.863281 63.796875 252.648438 63.796875 C 252.554688 63.796875 252.472656 63.753906 252.472656 63.695312 C 252.472656 63.644531 252.402344 63.574219 252.308594 63.539062 C 252.21875 63.503906 252.035156 63.40625 251.902344 63.320312 C 251.773438 63.234375 251.496094 63.046875 251.28125 62.90625 C 250.796875 62.59375 250.042969 62.4375 249.726562 62.59375 C 249.472656 62.714844 249.207031 63.421875 249.289062 63.761719 C 249.316406 63.878906 249.285156 63.992188 249.21875 64.015625 C 249.125 64.058594 249.125 64.082031 249.222656 64.15625 C 249.292969 64.207031 249.402344 64.34375 249.46875 64.46875 C 249.550781 64.617188 249.628906 64.765625 249.722656 64.910156 C 249.824219 65.070312 249.828125 65.164062 249.738281 65.355469 L 249.515625 65.839844 C 249.453125 65.972656 249.347656 66.078125 249.28125 66.078125 C 249.207031 66.078125 249.113281 66.15625 249.0625 66.257812 C 248.914062 66.527344 247.695312 67.292969 247.007812 67.539062 C 246.75 67.636719 246.449219 67.769531 246.339844 67.832031 C 246.238281 67.898438 245.996094 68.003906 245.796875 68.066406 C 245.601562 68.132812 245.441406 68.21875 245.441406 68.257812 C 245.441406 68.304688 245.324219 68.359375 245.179688 68.390625 C 244.519531 68.527344 243.863281 68.695312 243.777344 68.753906 C 243.726562 68.78125 243.5 68.84375 243.277344 68.878906 C 243.058594 68.914062 242.875 68.980469 242.875 69.023438 C 242.875 69.109375 242.152344 69.3125 241.730469 69.347656 C 241.589844 69.363281 241.4375 69.398438 241.386719 69.429688 C 241.332031 69.464844 240.984375 69.5 240.609375 69.511719 C 240.230469 69.515625 239.925781 69.558594 239.925781 69.59375 C 239.925781 69.632812 239.71875 69.644531 239.464844 69.617188 C 239.191406 69.59375 238.972656 69.613281 238.9375 69.675781 C 238.898438 69.742188 238.789062 69.746094 238.601562 69.679688 C 238.429688 69.617188 238.261719 69.613281 238.15625 69.667969 C 237.707031 69.894531 232.863281 69.597656 232.589844 69.328125 C 232.539062 69.277344 232.320312 69.28125 232.042969 69.332031 C 231.683594 69.40625 231.519531 69.394531 231.296875 69.289062 C 231.144531 69.207031 230.773438 69.140625 230.476562 69.132812 C 230.179688 69.125 229.84375 69.066406 229.726562 69.007812 C 229.617188 68.945312 229.382812 68.90625 229.214844 68.921875 C 229.039062 68.929688 228.902344 68.898438 228.902344 68.839844 C 228.902344 68.78125 228.796875 68.738281 228.667969 68.738281 C 228.542969 68.738281 228.316406 68.691406 228.171875 68.636719 C 228.023438 68.574219 227.707031 68.519531 227.46875 68.503906 C 227.226562 68.488281 226.902344 68.40625 226.738281 68.320312 C 226.578125 68.238281 226.355469 68.167969 226.253906 68.167969 C 226.148438 68.167969 226.050781 68.136719 226.035156 68.097656 C 226.015625 68.058594 225.726562 67.949219 225.386719 67.855469 C 224.195312 67.519531 223.996094 67.453125 223.746094 67.292969 C 223.601562 67.199219 223.433594 67.125 223.367188 67.125 C 223.296875 67.125 223.089844 67.042969 222.90625 66.941406 C 222.71875 66.839844 222.375 66.707031 222.148438 66.644531 C 221.703125 66.527344 221.304688 66.347656 220.679688 65.984375 C 220.472656 65.859375 220.179688 65.703125 220.039062 65.625 C 219.894531 65.554688 219.777344 65.457031 219.777344 65.417969 C 219.777344 65.375 219.660156 65.316406 219.515625 65.285156 C 219.371094 65.261719 219.085938 65.078125 218.878906 64.886719 C 218.667969 64.695312 218.34375 64.460938 218.148438 64.363281 C 217.835938 64.199219 217.207031 63.679688 216.515625 63.015625 C 216.367188 62.867188 216.203125 62.75 216.160156 62.75 C 216.109375 62.75 216.074219 62.71875 216.074219 62.679688 C 216.074219 62.636719 215.796875 62.320312 215.464844 61.980469 L 214.855469 61.355469 L 215.296875 61.386719 C 216.871094 61.492188 217.082031 61.492188 217.402344 61.363281 C 217.585938 61.292969 217.863281 61.21875 218.015625 61.195312 C 218.175781 61.175781 218.367188 61.136719 218.445312 61.109375 C 218.8125 60.984375 219.390625 60.851562 219.566406 60.851562 C 219.667969 60.851562 219.804688 60.789062 219.867188 60.71875 C 219.921875 60.648438 220.089844 60.566406 220.230469 60.535156 C 220.375 60.503906 220.589844 60.390625 220.707031 60.28125 C 220.824219 60.171875 220.917969 60.105469 220.917969 60.132812 C 220.917969 60.25 221.488281 59.664062 221.546875 59.492188 C 221.585938 59.359375 221.628906 59.339844 221.679688 59.417969 C 221.722656 59.496094 221.933594 59.273438 222.289062 58.769531 C 222.589844 58.34375 222.875 58 222.925781 58 C 223.023438 58 223.199219 57.601562 223.246094 57.285156 C 223.261719 57.179688 223.316406 56.976562 223.378906 56.828125 C 223.445312 56.664062 223.449219 56.496094 223.398438 56.402344 C 223.351562 56.3125 223.339844 56.089844 223.363281 55.90625 C 223.441406 55.367188 223.429688 54.9375 223.324219 54.464844 L 223.226562 54.027344 L 223.476562 54.074219 C 223.613281 54.097656 223.851562 54.113281 224.003906 54.113281 C 224.164062 54.113281 224.398438 54.15625 224.53125 54.199219 C 224.757812 54.289062 225.40625 54.398438 226.714844 54.589844 C 227.84375 54.746094 228.5625 54.800781 229.519531 54.796875 C 230.15625 54.796875 230.5 54.832031 230.582031 54.914062 C 230.734375 55.066406 231.746094 55.234375 232.796875 55.285156 C 233.242188 55.3125 233.90625 55.355469 234.273438 55.386719 C 234.636719 55.421875 235.128906 55.464844 235.363281 55.480469 C 235.597656 55.496094 235.917969 55.535156 236.078125 55.570312 C 236.234375 55.613281 236.964844 55.671875 237.695312 55.707031 C 238.5625 55.75 239.140625 55.824219 239.355469 55.921875 C 239.828125 56.128906 241.691406 56.039062 241.992188 55.789062 C 242.058594 55.738281 242.117188 55.734375 242.117188 55.78125 C 242.117188 55.910156 242.441406 55.316406 242.574219 54.9375 C 242.679688 54.628906 242.671875 54.550781 242.527344 54.328125 C 242.4375 54.191406 242.226562 54.011719 242.070312 53.941406 C 241.910156 53.863281 241.589844 53.691406 241.351562 53.558594 C 240.765625 53.222656 239.621094 52.957031 239.515625 53.132812 C 239.476562 53.1875 239.316406 53.183594 239.070312 53.117188 C 238.765625 53.035156 238.664062 53.039062 238.601562 53.140625 C 238.550781 53.226562 238.503906 53.234375 238.460938 53.164062 C 238.425781 53.101562 238.316406 53.054688 238.21875 53.054688 C 238.117188 53.054688 238.023438 52.980469 237.996094 52.886719 C 237.957031 52.734375 237.949219 52.734375 237.941406 52.898438 C 237.9375 53.015625 237.878906 53.050781 237.765625 53.019531 C 237.675781 52.988281 237.367188 52.945312 237.074219 52.914062 C 236.789062 52.886719 236.421875 52.839844 236.269531 52.820312 C 236.113281 52.796875 235.710938 52.75 235.378906 52.722656 C 235.046875 52.695312 234.703125 52.632812 234.621094 52.59375 C 234.535156 52.546875 234.289062 52.515625 234.082031 52.527344 C 233.871094 52.53125 233.570312 52.484375 233.410156 52.425781 C 233.25 52.359375 232.742188 52.3125 232.285156 52.3125 C 231.808594 52.316406 231.421875 52.277344 231.386719 52.226562 C 231.351562 52.167969 231.066406 52.128906 230.757812 52.128906 C 230.210938 52.128906 229.707031 52.078125 229.121094 51.964844 C 228.972656 51.933594 228.53125 51.890625 228.140625 51.863281 C 227.746094 51.839844 227.191406 51.773438 226.90625 51.710938 C 226.617188 51.65625 226.1875 51.574219 225.957031 51.523438 C 225.105469 51.355469 224.269531 51.261719 223.171875 51.207031 C 222.550781 51.183594 222.015625 51.140625 221.980469 51.121094 C 221.941406 51.09375 221.511719 51.050781 221.015625 51.011719 C 220.523438 50.976562 220.011719 50.902344 219.875 50.84375 C 219.53125 50.707031 216.628906 50.601562 215.503906 50.6875 C 215.371094 50.699219 215.113281 50.6875 214.933594 50.65625 C 214.75 50.632812 214.363281 50.683594 214.078125 50.773438 M 247.242188 51.085938 C 246.691406 51.378906 246.535156 51.613281 246.160156 52.722656 C 245.882812 53.539062 245.835938 53.789062 245.851562 54.480469 C 245.863281 55.128906 245.898438 55.289062 246.011719 55.296875 C 246.085938 55.296875 246.144531 55.351562 246.128906 55.421875 C 246.082031 55.625 246.203125 55.90625 246.339844 55.90625 C 246.414062 55.90625 246.484375 55.949219 246.503906 55.992188 C 246.570312 56.175781 248.023438 56.160156 248.214844 55.976562 C 248.28125 55.910156 248.460938 55.804688 248.601562 55.742188 C 248.746094 55.675781 248.863281 55.566406 248.863281 55.488281 C 248.863281 55.414062 248.90625 55.335938 248.957031 55.320312 C 249.015625 55.300781 249.066406 55.15625 249.082031 55.003906 C 249.089844 54.847656 249.125 54.699219 249.152344 54.667969 C 249.300781 54.542969 249.601562 53.726562 249.617188 53.410156 C 249.621094 53.214844 249.558594 52.851562 249.476562 52.613281 C 249.398438 52.367188 249.351562 52.113281 249.375 52.042969 C 249.40625 51.972656 249.398438 51.914062 249.359375 51.914062 C 249.320312 51.914062 249.203125 51.78125 249.101562 51.625 C 248.921875 51.355469 248.78125 51.269531 248.074219 50.976562 C 247.722656 50.835938 247.722656 50.835938 247.242188 51.085938 M 257.179688 52.460938 C 257 52.496094 256.6875 52.613281 256.378906 52.765625 C 256.113281 52.898438 255.628906 54.03125 255.511719 54.8125 C 255.445312 55.230469 255.363281 55.617188 255.324219 55.667969 C 255.28125 55.722656 255.289062 55.976562 255.328125 56.238281 C 255.375 56.503906 255.410156 56.765625 255.414062 56.832031 C 255.421875 56.898438 255.492188 56.949219 255.574219 56.949219 C 255.652344 56.949219 255.769531 57.078125 255.828125 57.230469 C 255.914062 57.453125 256.011719 57.519531 256.378906 57.59375 C 257.339844 57.785156 258.265625 57.269531 258.519531 56.40625 C 258.601562 56.136719 258.644531 55.871094 258.613281 55.824219 C 258.582031 55.78125 258.648438 55.625 258.753906 55.496094 C 258.90625 55.296875 258.941406 55.128906 258.929688 54.648438 C 258.898438 53.835938 258.601562 52.933594 258.285156 52.699219 C 258.027344 52.511719 257.507812 52.398438 257.179688 52.460938 M 232.695312 73.042969 C 232.59375 73.152344 232.511719 73.292969 232.511719 73.355469 C 232.511719 73.417969 232.371094 73.539062 232.191406 73.621094 C 232.019531 73.707031 231.707031 73.976562 231.503906 74.226562 C 231.304688 74.476562 231.042969 74.753906 230.925781 74.851562 C 230.808594 74.949219 230.710938 75.082031 230.710938 75.152344 C 230.710938 75.222656 230.558594 75.371094 230.378906 75.484375 C 229.992188 75.722656 229.632812 76.136719 229.425781 76.5625 C 229.347656 76.730469 229.179688 76.984375 229.050781 77.132812 C 228.441406 77.847656 228.140625 78.40625 227.992188 79.097656 C 227.871094 79.6875 227.863281 79.84375 227.972656 80.039062 C 228.210938 80.492188 228.558594 80.769531 228.933594 80.804688 C 228.972656 80.808594 228.984375 80.851562 228.953125 80.894531 C 228.929688 80.941406 229.253906 81.011719 229.675781 81.046875 C 230.230469 81.101562 230.410156 81.144531 230.296875 81.207031 C 230.207031 81.257812 230.140625 81.332031 230.140625 81.386719 C 230.140625 81.4375 229.953125 81.742188 229.722656 82.070312 C 229.5 82.398438 229.234375 82.835938 229.136719 83.042969 C 229.039062 83.253906 228.933594 83.445312 228.902344 83.472656 C 228.867188 83.496094 228.667969 83.839844 228.457031 84.230469 C 228.242188 84.621094 227.914062 85.179688 227.726562 85.464844 C 227.535156 85.753906 227.378906 86.023438 227.378906 86.074219 C 227.378906 86.121094 227.207031 86.5 226.992188 86.914062 C 226.78125 87.335938 226.632812 87.738281 226.667969 87.820312 C 226.699219 87.902344 226.667969 88.003906 226.601562 88.050781 C 226.5 88.109375 226.5 88.125 226.601562 88.125 C 226.679688 88.125 226.699219 88.175781 226.652344 88.25 C 226.605469 88.3125 226.570312 88.453125 226.566406 88.558594 C 226.554688 88.660156 226.519531 88.820312 226.484375 88.90625 C 226.410156 89.082031 226.78125 89.476562 227.253906 89.699219 C 227.578125 89.851562 228.242188 89.886719 228.382812 89.753906 C 228.515625 89.636719 229.75 89.328125 229.820312 89.394531 C 229.855469 89.429688 229.835938 89.511719 229.777344 89.578125 C 229.722656 89.644531 229.660156 89.828125 229.632812 89.984375 C 229.605469 90.136719 229.519531 90.457031 229.441406 90.695312 C 229.257812 91.226562 228.945312 92.78125 228.8125 93.773438 C 228.753906 94.179688 228.679688 94.566406 228.644531 94.628906 C 228.601562 94.683594 228.558594 94.929688 228.546875 95.164062 C 228.53125 95.398438 228.496094 95.953125 228.46875 96.398438 C 228.445312 96.84375 228.402344 97.417969 228.378906 97.683594 C 228.351562 97.941406 228.3125 98.496094 228.28125 98.914062 C 228.257812 99.335938 228.199219 100.023438 228.164062 100.453125 C 228.125 100.878906 228.125 101.367188 228.15625 101.542969 C 228.191406 101.714844 228.183594 101.929688 228.140625 102.011719 C 228.09375 102.097656 228.089844 102.203125 228.128906 102.253906 C 228.171875 102.300781 228.183594 102.585938 228.164062 102.886719 C 228.132812 103.3125 228.089844 103.429688 227.964844 103.4375 C 227.878906 103.4375 227.726562 103.503906 227.625 103.578125 C 227.523438 103.65625 227.386719 103.714844 227.320312 103.714844 C 227.25 103.714844 226.820312 103.894531 226.363281 104.113281 C 225.683594 104.433594 225.390625 104.648438 224.789062 105.25 C 224.386719 105.660156 224.054688 106.054688 224.054688 106.125 C 224.054688 106.199219 223.96875 106.367188 223.863281 106.5 C 223.761719 106.632812 223.648438 106.878906 223.613281 107.035156 C 223.582031 107.199219 223.519531 107.355469 223.476562 107.382812 C 223.433594 107.40625 223.425781 107.496094 223.457031 107.574219 C 223.484375 107.652344 223.441406 107.769531 223.351562 107.832031 C 223.144531 107.988281 223.003906 108.804688 223.125 109.148438 C 223.175781 109.300781 223.195312 109.484375 223.164062 109.566406 C 223.097656 109.730469 223.28125 110.183594 223.414062 110.183594 C 223.464844 110.183594 223.484375 110.292969 223.460938 110.4375 C 223.398438 110.738281 223.558594 111.128906 223.734375 111.128906 C 223.804688 111.128906 223.863281 111.175781 223.863281 111.226562 C 223.863281 111.277344 223.949219 111.40625 224.054688 111.511719 C 224.15625 111.613281 224.246094 111.667969 224.246094 111.628906 C 224.246094 111.59375 224.351562 111.734375 224.484375 111.953125 C 224.648438 112.222656 224.808594 112.371094 224.996094 112.414062 C 225.144531 112.441406 225.339844 112.550781 225.425781 112.640625 C 225.507812 112.738281 225.710938 112.816406 225.878906 112.820312 C 226.042969 112.824219 226.203125 112.875 226.242188 112.9375 C 226.277344 112.992188 226.597656 113.085938 226.949219 113.128906 C 227.304688 113.179688 227.636719 113.253906 227.691406 113.285156 C 227.78125 113.339844 229.582031 113.347656 230.445312 113.296875 C 230.695312 113.285156 230.898438 113.304688 230.898438 113.347656 C 230.898438 113.390625 230.976562 113.402344 231.066406 113.375 C 231.210938 113.328125 232.035156 113.277344 234.082031 113.191406 C 234.601562 113.167969 235.796875 112.800781 236.035156 112.589844 C 236.121094 112.519531 236.261719 112.464844 236.347656 112.464844 C 236.433594 112.464844 236.820312 112.148438 237.207031 111.761719 C 237.875 111.089844 237.914062 111.023438 238.117188 110.265625 C 238.234375 109.828125 238.359375 109.226562 238.382812 108.925781 C 238.410156 108.625 238.476562 108.390625 238.53125 108.402344 C 238.585938 108.414062 238.636719 108.175781 238.652344 107.839844 C 238.667969 107.519531 238.75 106.695312 238.835938 106.003906 C 238.921875 105.316406 238.972656 104.664062 238.945312 104.554688 C 238.917969 104.449219 238.9375 104.25 238.988281 104.117188 C 239.089844 103.847656 239.140625 102.941406 239.214844 100.40625 C 239.238281 99.5 239.28125 98.726562 239.304688 98.6875 C 239.332031 98.644531 239.375 98.125 239.40625 97.53125 C 239.4375 96.941406 239.503906 96.398438 239.558594 96.339844 C 239.621094 96.261719 239.617188 96.203125 239.542969 96.160156 C 239.472656 96.113281 239.484375 96.046875 239.582031 95.9375 C 239.71875 95.777344 239.734375 95.523438 239.617188 95.257812 C 239.582031 95.179688 239.535156 94.945312 239.507812 94.734375 C 239.441406 94.148438 239.296875 93.832031 239.082031 93.832031 C 238.980469 93.832031 238.863281 93.78125 238.828125 93.726562 C 238.738281 93.585938 237.980469 93.671875 237.808594 93.84375 C 237.472656 94.183594 237.21875 94.75 237.21875 95.164062 C 237.21875 95.398438 237.1875 95.617188 237.152344 95.640625 C 237.109375 95.671875 237.058594 96.175781 237.035156 96.765625 C 237.003906 97.355469 236.96875 97.867188 236.949219 97.902344 C 236.925781 97.9375 236.902344 98.519531 236.898438 99.195312 C 236.886719 99.867188 236.859375 100.449219 236.839844 100.476562 C 236.800781 100.550781 236.722656 101.835938 236.648438 103.761719 C 236.617188 104.546875 236.574219 105.273438 236.554688 105.382812 C 236.53125 105.484375 236.449219 106.296875 236.367188 107.1875 C 236.195312 109.023438 236.058594 109.886719 235.914062 110.058594 C 235.863281 110.125 235.730469 110.183594 235.628906 110.183594 C 235.527344 110.183594 235.308594 110.238281 235.140625 110.316406 C 234.785156 110.46875 233.75 110.742188 233.246094 110.8125 L 232.878906 110.863281 L 232.898438 110.121094 C 232.914062 109.710938 232.964844 109.34375 233.027344 109.308594 C 233.09375 109.261719 233.015625 109.125 232.824219 108.917969 C 232.652344 108.746094 232.511719 108.558594 232.511719 108.507812 C 232.511719 108.457031 232.351562 108.402344 232.144531 108.390625 C 231.824219 108.371094 231.71875 108.425781 231.296875 108.824219 C 230.714844 109.367188 230.632812 109.566406 230.648438 110.386719 L 230.660156 111.023438 L 230.121094 111.023438 C 229.484375 111.027344 229.484375 111.027344 229.433594 109.933594 C 229.382812 108.839844 229.269531 108 229.167969 107.9375 C 228.984375 107.820312 228.316406 107.800781 227.949219 107.898438 C 227.621094 107.988281 227.570312 108.035156 227.570312 108.277344 C 227.570312 108.429688 227.527344 108.578125 227.476562 108.613281 C 227.425781 108.644531 227.378906 108.792969 227.378906 108.945312 C 227.378906 109.09375 227.339844 109.246094 227.289062 109.277344 C 227.242188 109.308594 227.207031 109.578125 227.21875 109.878906 C 227.222656 110.171875 227.199219 110.472656 227.15625 110.539062 C 227.050781 110.710938 226.738281 110.679688 226.535156 110.476562 C 226.4375 110.375 226.292969 110.257812 226.214844 110.214844 C 226.132812 110.167969 225.917969 109.917969 225.742188 109.65625 C 225.460938 109.25 225.429688 109.144531 225.503906 108.898438 C 225.714844 108.191406 226.136719 107.328125 226.296875 107.265625 C 226.367188 107.238281 226.449219 107.136719 226.480469 107.042969 C 226.515625 106.933594 226.589844 106.882812 226.671875 106.914062 C 226.75 106.945312 226.808594 106.917969 226.808594 106.859375 C 226.808594 106.796875 227.042969 106.640625 227.328125 106.511719 C 227.621094 106.378906 227.878906 106.230469 227.910156 106.179688 C 227.941406 106.136719 228.046875 106.09375 228.148438 106.09375 C 228.25 106.09375 228.332031 106.027344 228.332031 105.945312 C 228.332031 105.863281 228.375 105.820312 228.417969 105.851562 C 228.5625 105.941406 229.570312 105.523438 229.570312 105.371094 C 229.570312 105.300781 229.632812 105.238281 229.710938 105.238281 C 229.789062 105.238281 229.855469 105.15625 229.855469 105.054688 C 229.855469 104.917969 229.910156 104.882812 230.09375 104.902344 C 230.507812 104.949219 230.5 104.984375 230.515625 101.898438 C 230.523438 100.667969 230.546875 99.628906 230.578125 99.597656 C 230.640625 99.542969 230.65625 99.367188 230.847656 96.683594 C 230.867188 96.394531 230.894531 96.160156 230.898438 96.160156 C 230.925781 96.160156 230.96875 95.722656 231.027344 94.996094 C 231.058594 94.617188 231.128906 94.21875 231.183594 94.113281 C 231.238281 94.011719 231.265625 93.890625 231.238281 93.84375 C 231.210938 93.796875 231.25 93.6875 231.320312 93.585938 C 231.414062 93.460938 231.4375 93.273438 231.402344 93.003906 C 231.363281 92.71875 231.394531 92.53125 231.503906 92.363281 C 231.585938 92.234375 231.65625 92.003906 231.65625 91.859375 C 231.65625 91.710938 231.75 91.421875 231.855469 91.214844 C 232.03125 90.890625 232.167969 90.503906 232.261719 90.054688 C 232.273438 89.996094 232.316406 89.914062 232.355469 89.871094 C 232.390625 89.835938 232.421875 89.71875 232.421875 89.609375 C 232.421875 89.5 232.527344 89.3125 232.65625 89.191406 C 232.789062 89.066406 232.875 88.933594 232.847656 88.894531 C 232.828125 88.859375 232.871094 88.707031 232.945312 88.5625 C 233.125 88.222656 233.125 88.234375 232.871094 88.132812 C 232.707031 88.066406 232.695312 88.042969 232.824219 88.039062 C 233.078125 88.027344 233 87.277344 232.742188 87.277344 C 232.671875 87.277344 232.609375 87.214844 232.609375 87.148438 C 232.609375 87.078125 232.425781 86.960938 232.207031 86.890625 C 231.984375 86.816406 231.773438 86.722656 231.738281 86.667969 C 231.640625 86.53125 231.46875 86.695312 231.535156 86.859375 C 231.585938 86.992188 231.5625 86.996094 231.382812 86.898438 C 231.21875 86.8125 231.117188 86.816406 230.898438 86.925781 C 230.648438 87.050781 230.589844 87.042969 230.191406 86.859375 L 229.753906 86.65625 L 230.042969 86.324219 C 230.339844 85.976562 230.375 85.890625 230.257812 85.824219 C 230.214844 85.804688 230.238281 85.800781 230.304688 85.8125 C 230.371094 85.828125 230.425781 85.808594 230.425781 85.761719 C 230.425781 85.722656 230.53125 85.566406 230.664062 85.414062 C 230.800781 85.257812 230.996094 84.953125 231.101562 84.730469 C 231.210938 84.511719 231.34375 84.328125 231.394531 84.328125 C 231.445312 84.328125 231.464844 84.265625 231.4375 84.195312 C 231.40625 84.113281 231.460938 84.042969 231.570312 84.011719 C 231.679688 83.988281 231.753906 83.882812 231.753906 83.761719 C 231.753906 83.65625 231.839844 83.492188 231.941406 83.402344 C 232.050781 83.308594 232.320312 82.9375 232.539062 82.570312 C 232.761719 82.203125 233.207031 81.648438 233.527344 81.332031 C 233.90625 80.960938 234.148438 80.632812 234.230469 80.382812 C 234.289062 80.171875 234.382812 79.953125 234.433594 79.894531 C 234.640625 79.628906 234.265625 79.011719 233.726562 78.730469 C 233.363281 78.546875 233.148438 78.507812 232.554688 78.519531 C 232.144531 78.523438 231.765625 78.574219 231.699219 78.628906 C 231.617188 78.695312 231.570312 78.691406 231.546875 78.613281 C 231.515625 78.535156 231.429688 78.546875 231.238281 78.671875 C 231.015625 78.820312 230.964844 78.824219 230.890625 78.710938 C 230.832031 78.621094 230.851562 78.546875 230.964844 78.484375 C 231.210938 78.335938 231.566406 77.941406 231.519531 77.871094 C 231.5 77.835938 231.605469 77.6875 231.757812 77.539062 C 231.914062 77.394531 232.015625 77.234375 231.988281 77.1875 C 231.957031 77.144531 231.984375 77.101562 232.042969 77.101562 C 232.175781 77.101562 232.421875 76.839844 232.8125 76.273438 C 232.964844 76.050781 233.15625 75.867188 233.230469 75.867188 C 233.308594 75.867188 233.367188 75.835938 233.367188 75.792969 C 233.367188 75.757812 233.464844 75.609375 233.582031 75.46875 C 234.257812 74.664062 234.375 74.480469 234.488281 74.046875 C 234.601562 73.609375 234.59375 73.550781 234.414062 73.25 C 234.289062 73.050781 234.128906 72.917969 234.003906 72.90625 C 232.90625 72.847656 232.878906 72.851562 232.695312 73.042969 M 285.042969 75.988281 C 285.0625 77.175781 285.128906 78.003906 285.214844 78.140625 C 285.246094 78.191406 285.285156 78.484375 285.308594 78.789062 C 285.328125 79.089844 285.375 79.507812 285.410156 79.714844 C 285.480469 80.128906 285.546875 81.320312 285.585938 82.902344 C 285.601562 83.453125 285.664062 84.066406 285.71875 84.273438 C 285.78125 84.476562 285.800781 84.683594 285.765625 84.738281 C 285.683594 84.878906 285.660156 85.164062 285.601562 86.488281 C 285.578125 87.101562 285.511719 87.96875 285.453125 88.417969 C 285.402344 88.859375 285.34375 89.519531 285.316406 89.886719 C 285.273438 90.601562 285.058594 91.882812 284.820312 92.882812 C 284.738281 93.222656 284.628906 93.710938 284.585938 93.976562 C 284.496094 94.417969 284.183594 95.605469 284.058594 95.921875 C 284.03125 96.003906 283.992188 96.164062 283.976562 96.289062 C 283.957031 96.410156 283.898438 96.566406 283.839844 96.640625 C 283.78125 96.710938 283.738281 96.867188 283.753906 96.984375 C 283.769531 97.109375 283.746094 97.523438 283.703125 97.917969 C 283.667969 98.300781 283.628906 98.679688 283.589844 99.058594 C 283.535156 99.652344 283.28125 101.113281 283.183594 101.367188 C 283.144531 101.480469 283.03125 102.003906 282.941406 102.53125 C 282.851562 103.050781 282.734375 103.554688 282.691406 103.644531 C 282.644531 103.738281 282.605469 103.894531 282.605469 104 C 282.605469 104.226562 282.421875 104.585938 282.246094 104.695312 C 282.039062 104.832031 282.125 104.964844 282.390625 104.917969 C 282.964844 104.816406 283.773438 104.46875 283.890625 104.277344 C 283.921875 104.226562 284.144531 104.09375 284.378906 103.980469 C 284.621094 103.867188 284.914062 103.679688 285.039062 103.558594 C 285.160156 103.4375 285.300781 103.335938 285.359375 103.335938 C 285.410156 103.335938 285.636719 103.144531 285.855469 102.90625 C 286.078125 102.671875 286.308594 102.480469 286.371094 102.480469 C 286.433594 102.480469 286.582031 102.347656 286.707031 102.183594 C 286.828125 102.019531 287.011719 101.816406 287.109375 101.734375 C 287.496094 101.40625 288.019531 100.8125 288.019531 100.703125 C 288.019531 100.636719 288.152344 100.519531 288.304688 100.4375 C 288.464844 100.355469 288.589844 100.253906 288.589844 100.214844 C 288.589844 100.125 288.804688 99.867188 289.292969 99.34375 C 289.460938 99.160156 289.660156 98.863281 289.730469 98.679688 C 289.808594 98.496094 290 98.175781 290.164062 97.96875 C 290.332031 97.757812 290.753906 97.03125 291.113281 96.347656 C 291.464844 95.671875 291.777344 95.070312 291.808594 95.019531 C 291.84375 94.96875 291.875 94.902344 291.878906 94.878906 C 291.941406 94.5625 292.070312 94.242188 292.171875 94.164062 C 292.238281 94.113281 292.34375 93.855469 292.410156 93.59375 C 292.476562 93.335938 292.582031 93.050781 292.648438 92.96875 C 292.792969 92.796875 292.8125 92.597656 292.691406 92.597656 C 292.644531 92.597656 292.363281 92.835938 292.070312 93.125 C 291.773438 93.417969 291.4375 93.675781 291.320312 93.703125 C 291.207031 93.726562 291.066406 93.757812 291.011719 93.765625 C 290.953125 93.78125 290.8125 93.882812 290.683594 94 C 290.5625 94.117188 290.414062 94.214844 290.359375 94.21875 L 289.925781 94.265625 C 289.722656 94.285156 289.410156 94.21875 289.140625 94.097656 C 288.664062 93.882812 288.671875 93.898438 288.664062 93.070312 C 288.65625 92.195312 288.671875 92.164062 289.402344 91.597656 C 289.597656 91.441406 289.832031 91.230469 289.914062 91.128906 C 289.996094 91.027344 290.15625 90.859375 290.265625 90.75 C 290.515625 90.5 290.988281 89.496094 291.308594 88.519531 C 291.453125 88.09375 291.589844 87.75 291.625 87.75 C 291.660156 87.75 291.695312 87.652344 291.703125 87.535156 C 291.722656 87.269531 291.90625 86.53125 292.019531 86.277344 C 292.0625 86.171875 292.125 85.828125 292.152344 85.515625 C 292.175781 85.203125 292.214844 84.796875 292.238281 84.613281 C 292.324219 83.832031 292.320312 83.503906 292.214844 83.253906 C 292.160156 83.105469 292.109375 82.921875 292.109375 82.847656 C 292.109375 82.773438 292.0625 82.707031 292.003906 82.707031 C 291.828125 82.707031 291.558594 83.074219 291.386719 83.554688 C 291.296875 83.792969 291.15625 84.046875 291.082031 84.113281 C 291 84.175781 290.964844 84.257812 290.996094 84.292969 C 291.03125 84.324219 290.949219 84.507812 290.820312 84.695312 C 290.695312 84.882812 290.585938 85.089844 290.585938 85.152344 C 290.585938 85.21875 290.53125 85.25 290.460938 85.222656 C 290.375 85.1875 290.308594 85.257812 290.265625 85.414062 C 290.230469 85.550781 290.140625 85.65625 290.0625 85.65625 C 289.980469 85.65625 289.894531 85.722656 289.863281 85.800781 C 289.789062 85.992188 288.949219 85.996094 288.785156 85.804688 C 288.582031 85.558594 288.320312 84.140625 288.417969 83.808594 C 288.464844 83.652344 288.53125 83.261719 288.5625 82.949219 C 288.589844 82.636719 288.632812 82.363281 288.648438 82.34375 C 288.667969 82.320312 288.636719 82.226562 288.585938 82.128906 C 288.519531 82.007812 288.523438 81.890625 288.601562 81.746094 C 288.6875 81.582031 288.671875 81.339844 288.546875 80.625 C 288.453125 80.128906 288.332031 79.664062 288.28125 79.597656 C 288.214844 79.515625 288.234375 79.480469 288.34375 79.480469 C 288.449219 79.480469 288.417969 79.402344 288.21875 79.199219 C 288.058594 79.03125 287.917969 78.769531 287.882812 78.535156 C 287.84375 78.324219 287.777344 78.125 287.730469 78.09375 C 287.679688 78.066406 287.644531 77.957031 287.644531 77.855469 C 287.644531 77.753906 287.578125 77.640625 287.5 77.613281 C 287.425781 77.585938 287.332031 77.46875 287.296875 77.355469 C 287.210938 77.082031 286.65625 76.257812 286.355469 75.957031 C 286.222656 75.824219 286.140625 75.6875 286.183594 75.652344 C 286.21875 75.609375 286.179688 75.582031 286.089844 75.582031 C 286.011719 75.582031 285.894531 75.5 285.835938 75.390625 C 285.78125 75.289062 285.675781 75.203125 285.601562 75.203125 C 285.53125 75.203125 285.460938 75.164062 285.441406 75.121094 C 285.425781 75.078125 285.324219 75.011719 285.214844 74.980469 C 285.03125 74.917969 285.027344 74.960938 285.042969 75.988281 M 246.054688 93.410156 C 245.847656 93.488281 245.5 93.710938 245.277344 93.910156 C 244.902344 94.257812 244.886719 94.296875 244.910156 94.738281 C 244.929688 95 244.90625 95.234375 244.855469 95.265625 C 244.804688 95.292969 244.75 95.535156 244.726562 95.789062 C 244.636719 96.925781 244.441406 104.429688 244.5 104.722656 C 244.574219 105.136719 244.421875 105.402344 244.066406 105.46875 C 243.917969 105.492188 243.769531 105.550781 243.738281 105.59375 C 243.710938 105.636719 243.5 105.734375 243.277344 105.804688 C 243.058594 105.875 242.875 105.972656 242.875 106.011719 C 242.875 106.058594 242.824219 106.09375 242.761719 106.09375 C 242.625 106.09375 241.769531 106.640625 241.464844 106.925781 C 241.335938 107.042969 241.199219 107.136719 241.160156 107.136719 C 241.050781 107.136719 240.136719 108.289062 239.972656 108.628906 C 239.894531 108.796875 239.75 109.257812 239.652344 109.652344 C 239.472656 110.359375 239.472656 110.390625 239.644531 110.992188 C 239.742188 111.328125 239.792969 111.609375 239.757812 111.609375 C 239.726562 111.609375 239.753906 111.660156 239.8125 111.71875 C 239.875 111.78125 239.925781 111.953125 239.925781 112.101562 C 239.925781 112.246094 239.972656 112.367188 240.027344 112.367188 C 240.085938 112.367188 240.105469 112.402344 240.074219 112.453125 C 240.046875 112.5 240.207031 112.632812 240.425781 112.75 C 240.648438 112.859375 240.851562 113 240.882812 113.042969 C 240.914062 113.089844 241.027344 113.144531 241.132812 113.167969 C 241.238281 113.1875 241.566406 113.335938 241.855469 113.488281 C 242.207031 113.675781 242.585938 113.792969 242.988281 113.828125 C 243.316406 113.859375 243.734375 113.914062 243.917969 113.949219 C 244.253906 114.015625 244.488281 114.027344 245.011719 113.992188 C 245.171875 113.980469 245.425781 114 245.582031 114.027344 C 245.882812 114.085938 248 114.085938 248.59375 114.03125 C 248.78125 114.015625 249.019531 113.957031 249.117188 113.90625 C 249.214844 113.855469 249.488281 113.789062 249.722656 113.761719 C 250.085938 113.714844 250.949219 113.460938 251.429688 113.253906 C 251.507812 113.21875 251.589844 113.1875 251.617188 113.179688 C 251.824219 113.128906 252.691406 112.386719 252.84375 112.121094 C 252.949219 111.945312 253.078125 111.796875 253.128906 111.796875 C 253.25 111.796875 253.554688 110.976562 253.476562 110.855469 C 253.445312 110.796875 253.453125 110.753906 253.5 110.753906 C 253.601562 110.753906 253.804688 109.578125 253.855469 108.707031 C 253.871094 108.394531 253.933594 106.980469 253.988281 105.570312 C 254.046875 104.160156 254.117188 102.683594 254.140625 102.289062 C 254.164062 101.898438 254.207031 101.023438 254.238281 100.339844 C 254.269531 99.664062 254.335938 98.996094 254.386719 98.863281 C 254.4375 98.730469 254.492188 98.328125 254.507812 97.960938 C 254.527344 97.601562 254.574219 96.953125 254.617188 96.53125 C 254.695312 95.644531 254.605469 94.550781 254.433594 94.378906 C 254.367188 94.3125 254.332031 94.207031 254.351562 94.140625 C 254.375 94.0625 254.289062 94.023438 254.101562 94.023438 C 253.945312 94.023438 253.789062 93.980469 253.761719 93.925781 C 253.679688 93.796875 253.296875 93.808594 253.160156 93.945312 C 253.097656 94.007812 253.042969 94.027344 253.042969 93.992188 C 253.042969 93.949219 252.992188 93.964844 252.925781 94.015625 C 252.859375 94.074219 252.695312 94.199219 252.558594 94.300781 C 252.171875 94.597656 252.003906 95.441406 252.09375 96.683594 C 252.101562 96.761719 252.074219 97.1875 252.042969 97.632812 C 251.84375 100.332031 251.804688 101.089844 251.765625 102.671875 C 251.738281 103.640625 251.675781 104.6875 251.625 105 C 251.574219 105.316406 251.464844 106.550781 251.382812 107.757812 C 251.296875 108.960938 251.203125 110.097656 251.179688 110.285156 C 251.117188 110.667969 250.902344 110.828125 250.140625 111.089844 C 249.878906 111.175781 249.605469 111.296875 249.527344 111.363281 C 249.449219 111.429688 249.230469 111.507812 249.039062 111.535156 L 248.695312 111.59375 L 248.710938 110.910156 L 248.71875 110.234375 L 248.402344 110.082031 C 248.0625 109.917969 247.195312 109.929688 246.988281 110.101562 C 246.921875 110.15625 246.867188 110.171875 246.867188 110.132812 C 246.867188 110.089844 246.78125 110.132812 246.679688 110.226562 C 246.480469 110.40625 246.378906 110.785156 246.355469 111.441406 C 246.347656 111.832031 246.332031 111.847656 246.082031 111.8125 C 245.941406 111.792969 245.824219 111.734375 245.824219 111.691406 C 245.824219 111.644531 245.761719 111.609375 245.691406 111.609375 C 245.53125 111.609375 245.460938 111.375 245.5 110.988281 C 245.515625 110.828125 245.558594 110.441406 245.589844 110.125 C 245.648438 109.546875 245.648438 109.546875 245.359375 109.425781 C 245.203125 109.363281 245.054688 109.257812 245.03125 109.195312 C 245.007812 109.128906 244.8125 109.097656 244.523438 109.117188 C 244.066406 109.148438 244.050781 109.160156 243.695312 109.734375 C 243.398438 110.207031 243.324219 110.421875 243.3125 110.824219 C 243.308594 111.195312 243.273438 111.308594 243.175781 111.273438 C 243.101562 111.246094 242.925781 111.226562 242.773438 111.226562 C 242.421875 111.226562 242.183594 110.878906 242.152344 110.308594 C 242.132812 109.921875 242.167969 109.835938 242.574219 109.371094 C 242.816406 109.09375 243.074219 108.863281 243.132812 108.859375 C 243.199219 108.855469 243.257812 108.808594 243.257812 108.757812 C 243.257812 108.699219 243.300781 108.660156 243.359375 108.660156 C 243.414062 108.660156 243.578125 108.578125 243.714844 108.480469 C 243.851562 108.386719 244.242188 108.253906 244.578125 108.191406 C 244.960938 108.117188 245.304688 107.984375 245.472656 107.839844 C 245.625 107.714844 245.894531 107.546875 246.070312 107.472656 C 246.449219 107.316406 246.757812 106.699219 246.757812 106.125 C 246.753906 105.925781 246.792969 105.660156 246.839844 105.539062 C 246.886719 105.421875 246.898438 105.089844 246.867188 104.8125 C 246.835938 104.53125 246.835938 104.226562 246.871094 104.128906 C 246.90625 104.035156 246.902344 103.824219 246.867188 103.660156 C 246.824219 103.496094 246.835938 103.289062 246.886719 103.203125 C 246.972656 103.042969 246.949219 102.800781 246.804688 102.429688 C 246.757812 102.3125 246.773438 102.28125 246.851562 102.328125 C 246.910156 102.367188 246.960938 102.351562 246.960938 102.296875 C 246.960938 102.238281 246.90625 102.195312 246.839844 102.195312 C 246.75 102.195312 246.75 102.179688 246.847656 102.117188 C 246.933594 102.0625 246.941406 101.925781 246.882812 101.597656 C 246.832031 101.34375 246.832031 101.148438 246.875 101.148438 C 246.921875 101.148438 246.957031 100.859375 246.953125 100.507812 C 246.949219 100.15625 246.972656 99.671875 247.007812 99.433594 C 247.042969 99.179688 247.027344 98.828125 246.960938 98.589844 C 246.875 98.257812 246.875 98.160156 246.976562 98.101562 C 247.042969 98.058594 247.109375 97.902344 247.121094 97.757812 C 247.132812 97.613281 247.175781 97.050781 247.222656 96.515625 C 247.261719 95.980469 247.261719 95.542969 247.222656 95.542969 C 247.140625 95.542969 247.21875 93.957031 247.304688 93.816406 C 247.328125 93.773438 247.289062 93.710938 247.207031 93.679688 C 247.125 93.644531 247.054688 93.5625 247.054688 93.488281 C 247.054688 93.417969 247.003906 93.355469 246.9375 93.355469 C 246.871094 93.355469 246.734375 93.335938 246.625 93.3125 C 246.523438 93.289062 246.265625 93.335938 246.054688 93.410156 " fill-opacity="1" fill-rule="evenodd"/></svg>